<svg width="184" height="92" viewBox="0 0 184 92" fill="none" xmlns="http://www.w3.org/2000/svg">
<path d="M152 54.4998H32V55.1665H152V54.4998Z" fill="#00965E"/>
<path d="M152 37.1665H141.153L140.827 38.4998H151.667L152 37.1665Z" fill="#00965E"/>
<path d="M151.5 39.1665H140.66L140.327 40.4998H151.167L151.5 39.1665Z" fill="#00965E"/>
<path d="M151 41.1665H140.16L139.827 42.4998H150.673L151 41.1665Z" fill="#00965E"/>
<path d="M150.507 43.1665H139.66L139.327 44.4998H150.173L150.507 43.1665Z" fill="#00965E"/>
<path d="M150.007 45.1665H139.16L138.827 46.4998H149.673L150.007 45.1665Z" fill="#00965E"/>
<path d="M149.507 47.1665H138.66L138.333 48.4998H149.173L149.507 47.1665Z" fill="#00965E"/>
<path d="M149.007 49.1665H138.167L137.833 50.4998H148.673L149.007 49.1665Z" fill="#00965E"/>
<path d="M148.507 51.1665H137.667L137.333 52.4998H148.18L148.507 51.1665Z" fill="#00965E"/>
<path d="M130.333 41.4999C131.62 41.4999 132.667 40.4533 132.667 39.1666C132.667 37.8799 131.62 36.8333 130.333 36.8333C129.047 36.8333 128 37.8799 128 39.1666C128 40.4533 129.047 41.4999 130.333 41.4999ZM130.333 37.3199C131.353 37.3199 132.18 38.1466 132.18 39.1666C132.18 40.1866 131.353 41.0133 130.333 41.0133C129.313 41.0133 128.487 40.1866 128.487 39.1666C128.487 38.1466 129.313 37.3199 130.333 37.3199Z" fill="#1D1D1B"/>
<path d="M129.967 39.3934H130.22C130.513 39.3934 130.653 39.5067 130.7 39.7467C130.767 40.0267 130.813 40.2267 130.88 40.3067H131.44C131.4 40.22 131.34 40.0934 131.273 39.7467C131.2 39.44 131.087 39.2534 130.867 39.1867V39.16C131.133 39.0734 131.347 38.8934 131.347 38.6134C131.347 38.3867 131.247 38.22 131.107 38.12C130.953 38.0067 130.753 37.94 130.32 37.94C129.94 37.94 129.647 37.98 129.433 38.0067V40.3134H129.967V39.3934ZM129.98 38.3534C130.04 38.34 130.133 38.3267 130.273 38.3267C130.613 38.3267 130.767 38.4667 130.767 38.68C130.767 38.92 130.527 39.02 130.233 39.02H129.98V38.3534Z" fill="#1D1D1B"/>
<path d="M126.04 43.1666H122.1C121.807 43.6866 121.28 44.0333 120.667 44.0333H118.667V43.1666H113.333V44.4999H124.953C125.433 44.1599 125.8 43.7133 126.04 43.1666Z" fill="#1D1D1B"/>
<path d="M125.213 46.4999C124.82 45.8266 124.42 45.4133 124.12 45.1666H113.327V46.4999H125.213Z" fill="#1D1D1B"/>
<path d="M118.667 51.1666H113.333V52.4999H118.667V51.1666Z" fill="#1D1D1B"/>
<path d="M118.667 41.1666H113.333V42.4999H118.667V41.1666Z" fill="#1D1D1B"/>
<path d="M113.333 40.4999H126.273C126.207 40.0599 126.067 39.6333 125.78 39.1666H113.34V40.4999H113.333Z" fill="#1D1D1B"/>
<path d="M120.667 37.1666H113.333V38.4999H125.233C124.373 37.7333 122.72 37.1666 120.667 37.1666Z" fill="#1D1D1B"/>
<path d="M122.333 42.2666C122.333 42.3466 122.333 42.4266 122.32 42.4999H126.247C126.307 42.2199 126.333 41.9199 126.333 41.5999C126.333 41.4533 126.333 41.3066 126.333 41.1666H121.973C122.2 41.4666 122.34 41.8533 122.34 42.2666H122.333Z" fill="#1D1D1B"/>
<path d="M121.893 50.4999H126.82C126.7 50.0866 126.553 49.6333 126.393 49.1666H121.293C121.513 49.6266 121.713 50.0799 121.893 50.4999Z" fill="#1D1D1B"/>
<path d="M118.667 47.4999C118.667 47.4999 120.38 47.4333 120.78 48.1666C120.84 48.2733 120.9 48.3866 120.96 48.4999H126.147C125.973 48.0533 125.78 47.5999 125.573 47.1666H113.34V48.4999H118.673V47.4999H118.667Z" fill="#1D1D1B"/>
<path d="M118.667 49.1666H113.333V50.4999H118.667V49.1666Z" fill="#1D1D1B"/>
<path d="M122.667 52.4999H127.333C127.333 52.4999 127.22 51.9666 127.007 51.1666H122.167C122.48 51.9533 122.667 52.4999 122.667 52.4999Z" fill="#1D1D1B"/>
<path d="M104.667 41.1666H100V42.4999H104.667V41.1666Z" fill="#1D1D1B"/>
<path d="M111.333 37.1666H100V38.4999H111.333V37.1666Z" fill="#1D1D1B"/>
<path d="M104.667 47.1666H100V48.4999H104.667V47.1666Z" fill="#1D1D1B"/>
<path d="M110 43.1666H100V44.4999H110V43.1666Z" fill="#1D1D1B"/>
<path d="M110 45.1666H100V46.4999H110V45.1666Z" fill="#1D1D1B"/>
<path d="M111.333 49.1666H100V50.4999H111.333V49.1666Z" fill="#1D1D1B"/>
<path d="M111.333 39.1666H100V40.4999H111.333V39.1666Z" fill="#1D1D1B"/>
<path d="M111.333 51.1666H100V52.4999H111.333V51.1666Z" fill="#1D1D1B"/>
<path d="M92.32 43.1666H84V44.4999H93.1333L92.32 43.1666Z" fill="#1D1D1B"/>
<path d="M89.8867 39.1666H84V40.4999H90.6933L89.8867 39.1666Z" fill="#1D1D1B"/>
<path d="M88.3333 45.1666H84V46.4999H88.3933L88.3333 45.1666Z" fill="#1D1D1B"/>
<path d="M91.1 41.1666H84V42.4999H91.9133L91.1 41.1666Z" fill="#1D1D1B"/>
<path d="M98 49.1666H91.3067L92.1133 50.4999H98V49.1666Z" fill="#1D1D1B"/>
<path d="M88.4267 47.1666H84V48.4999H88.4867L88.4267 47.1666Z" fill="#1D1D1B"/>
<path d="M88.5133 49.1666H84V50.4999H88.5733L88.5133 49.1666Z" fill="#1D1D1B"/>
<path d="M88.6667 37.1666H84V38.4999H89.48L88.6667 37.1666Z" fill="#1D1D1B"/>
<path d="M98 45.1666H88.8667L89.68 46.4999H98V45.1666Z" fill="#1D1D1B"/>
<path d="M98 47.1666H90.0867L90.9 48.4999H98V47.1666Z" fill="#1D1D1B"/>
<path d="M88.6067 51.1666H84V52.4999H88.6667L88.6067 51.1666Z" fill="#1D1D1B"/>
<path d="M98 52.4999V51.1666H92.52L93.3333 52.4999H98Z" fill="#1D1D1B"/>
<path d="M98 43.1666H93.6067L93.6667 44.4999H98V43.1666Z" fill="#1D1D1B"/>
<path d="M98 39.1666H93.4267L93.4867 40.4999H98V39.1666Z" fill="#1D1D1B"/>
<path d="M98 38.4999V37.1666H93.3333L93.3933 38.4999H98Z" fill="#1D1D1B"/>
<path d="M98 41.1666H93.5133L93.5733 42.4999H98V41.1666Z" fill="#1D1D1B"/>
<path d="M64.6667 37.1666H56L55.68 38.4999H64.9867L64.6667 37.1666Z" fill="#1D1D1B"/>
<path d="M58.94 45.1666H54.0867L53.7667 46.4999H58.6267L58.94 45.1666Z" fill="#1D1D1B"/>
<path d="M60.2667 39.4999H60.4L60.6334 40.4999H65.4667L65.1467 39.1666H55.52L55.2 40.4999H60.0333L60.2667 39.4999Z" fill="#1D1D1B"/>
<path d="M59.4067 43.1666H54.5667L54.2467 44.4999H59.0933L59.4067 43.1666Z" fill="#1D1D1B"/>
<path d="M59.8733 41.1666H55.0467L54.7267 42.4999H59.56L59.8733 41.1666Z" fill="#1D1D1B"/>
<path d="M62.04 46.4999H66.9L66.58 45.1666H61.7267L62.04 46.4999Z" fill="#1D1D1B"/>
<path d="M52.8133 50.4999H67.8533L67.5333 49.1666H53.1333L52.8133 50.4999Z" fill="#1D1D1B"/>
<path d="M58.1534 48.4999L58.4667 47.1666H53.6067L53.2867 48.4999H58.1534Z" fill="#1D1D1B"/>
<path d="M62.5134 48.4999H67.38L67.06 47.1666H62.2L62.5134 48.4999Z" fill="#1D1D1B"/>
<path d="M61.1066 42.4999H65.9399L65.6199 41.1666H60.7933L61.1066 42.4999Z" fill="#1D1D1B"/>
<path d="M61.5733 44.4999H66.42L66.1 43.1666H61.26L61.5733 44.4999Z" fill="#1D1D1B"/>
<path d="M52.3333 52.4999H68.3333L68.0133 51.1666H52.6533L52.3333 52.4999Z" fill="#1D1D1B"/>
<path d="M42.58 45.1666H33.9133L34.2333 46.4999H42.2333L42.58 45.1666Z" fill="#1D1D1B"/>
<path d="M41.5333 49.1666H34.8667L35.1867 50.4999H41.1867L41.5333 49.1666Z" fill="#1D1D1B"/>
<path d="M49.6667 52.4999L49.9867 51.1666H44.32L44.6667 52.4999H49.6667Z" fill="#1D1D1B"/>
<path d="M52.8533 39.1666H47.9867L47.7533 40.4999H52.5333L52.8533 39.1666Z" fill="#1D1D1B"/>
<path d="M50.4667 49.1666H43.8L44.1466 50.4999H50.1466L50.4667 49.1666Z" fill="#1D1D1B"/>
<path d="M52.38 41.1666H47.64L47.4067 42.4999H52.06L52.38 41.1666Z" fill="#1D1D1B"/>
<path d="M50.94 47.1666H43.2733L43.62 48.4999H50.62L50.94 47.1666Z" fill="#1D1D1B"/>
<path d="M51.9 43.1666H47.2867L47.06 44.4999H51.58L51.9 43.1666Z" fill="#1D1D1B"/>
<path d="M51.42 45.1666H42.7533L43.1 46.4999H51.1L51.42 45.1666Z" fill="#1D1D1B"/>
<path d="M42.06 47.1666H34.3933L34.7133 48.4999H41.7133L42.06 47.1666Z" fill="#1D1D1B"/>
<path d="M32.8 40.4999H37.58L37.3466 39.1666H32.48L32.8 40.4999Z" fill="#1D1D1B"/>
<path d="M37.2333 38.4999L37 37.1666H32L32.32 38.4999H37.2333Z" fill="#1D1D1B"/>
<path d="M45.9533 41.1666H39.38L39.06 42.4999H46.2733L45.9533 41.1666Z" fill="#1D1D1B"/>
<path d="M46.4333 43.1666H38.9L38.58 44.4999H46.7533L46.4333 43.1666Z" fill="#1D1D1B"/>
<path d="M53.3333 37.1666H48.3333L48.1 38.4999H53.0133L53.3333 37.1666Z" fill="#1D1D1B"/>
<path d="M45.48 39.1666H39.8533L39.5333 40.4999H45.8L45.48 39.1666Z" fill="#1D1D1B"/>
<path d="M35.6667 52.4999H40.6667L41.0133 51.1666H35.3467L35.6667 52.4999Z" fill="#1D1D1B"/>
<path d="M45 37.1666H40.3333L40.0133 38.4999H45.32L45 37.1666Z" fill="#1D1D1B"/>
<path d="M33.7533 44.4999H38.2733L38.0467 43.1666H33.4333L33.7533 44.4999Z" fill="#1D1D1B"/>
<path d="M33.2734 42.4999H37.9267L37.6934 41.1666H32.9534L33.2734 42.4999Z" fill="#1D1D1B"/>
<path d="M75.2267 48.4999C75.0067 48.3399 74.8133 48.1466 74.6667 47.8999C74.5067 47.6333 74.3867 47.3933 74.2933 47.1666H68.9867C69.1 47.6266 69.2533 48.0733 69.44 48.4999H75.2333H75.2267Z" fill="#1D1D1B"/>
<path d="M68.68 45.1666C68.7067 45.6133 68.7533 46.0599 68.8333 46.4999H74.0867C74 46.0799 73.9933 45.6599 73.9867 45.1666H68.68Z" fill="#1D1D1B"/>
<path d="M82 49.1666H69.7667C70.02 49.6199 70.32 50.0466 70.6667 50.4333C70.6867 50.4533 70.7067 50.4799 70.7267 50.4999H81.9933V49.1666H82Z" fill="#1D1D1B"/>
<path d="M82 51.8333V51.1666H71.4467C73.02 52.4199 75.06 52.7133 77.5133 52.7133C79.1333 52.7133 80.6533 52.3999 82 51.8333Z" fill="#1D1D1B"/>
<path d="M82 45.1666H77.6667V46.4999H82V45.1666Z" fill="#1D1D1B"/>
<path d="M82 47.1666H77.6667V48.4999H82V47.1666Z" fill="#1D1D1B"/>
<path d="M74.8533 41.9666C75.12 41.6199 75.4267 41.3599 75.7667 41.1666H69.3533C69.1733 41.5866 69.0267 42.0333 68.9133 42.4999H74.5C74.6 42.3266 74.7133 42.1466 74.8533 41.9666Z" fill="#1D1D1B"/>
<path d="M81.3333 41.1666H79.4C79.5733 41.2399 79.7733 41.3199 79.94 41.4133C80.4867 41.7133 80.9533 42.0799 81.3333 42.4999V41.1666Z" fill="#1D1D1B"/>
<path d="M81.3333 37.4999C80.1533 37.0866 78.8733 36.8399 77.5467 36.8333C75.2 36.8333 73.52 36.8999 71.3933 38.4999H81.3333V37.4999Z" fill="#1D1D1B"/>
<path d="M74.2067 43.1666H68.78C68.7067 43.5999 68.6667 44.0466 68.66 44.4999H73.9933C74.0133 44.0266 74.06 43.5933 74.2 43.1666H74.2067Z" fill="#1D1D1B"/>
<path d="M81.3333 39.1666H70.6267C70.2733 39.5399 69.9533 39.9933 69.68 40.4999H81.3333V39.1666Z" fill="#1D1D1B"/>
</svg>
