<svg width="104" height="96" viewBox="0 0 104 96" fill="none" xmlns="http://www.w3.org/2000/svg">
<path d="M0 3.29552C0 3.00896 0.143251 2.86567 0.143251 2.72239C0.286501 1.43284 1.146 0.429851 2.43526 0.143284C2.53076 0.0477612 2.62626 0 2.72176 0H21.2011V5.58806H8.16528C7.59228 5.58806 7.30578 6.01791 7.30578 6.59104V8.45373H17.3333C17.7631 8.45373 18.1928 8.45373 18.6226 8.59702C20.3416 8.7403 21.7741 10.0299 22.2038 11.606C22.2038 11.8925 22.3471 12.0358 22.3471 12.3224C22.6336 13.7552 22.6336 15.1881 22.6336 16.6209C22.6336 17.6239 22.4903 18.6269 22.0606 19.4866C21.6308 20.9194 20.4848 21.9224 19.0523 22.3522C18.4793 22.4955 18.0496 22.4955 17.4766 22.4955H3.15151C1.71901 22.4955 0.429752 21.4925 0.143251 20.0597C0.143251 19.9164 0 19.7731 0 19.6299V3.29552ZM7.30578 13.4687V16.0478C7.30578 16.7642 7.59228 17.0507 8.30853 17.0507H13.3223C13.6088 17.0507 13.8953 17.0507 14.1818 16.9075C14.7548 16.9075 15.0413 16.4776 15.1846 15.9045V14.7582C15.1846 14.1851 14.7548 13.7552 14.3251 13.6119C14.0385 13.4687 13.6088 13.4687 13.3223 13.4687H7.30578Z" fill="white"/>
<path d="M101.565 0V18.4836C101.565 19.0567 101.565 19.7731 101.421 20.3463C101.278 21.3493 100.562 22.0657 99.5591 22.209C98.9861 22.3522 98.5563 22.3522 97.9833 22.3522H90.1045C89.6748 22.3522 89.1018 22.3522 88.672 22.209C86.6665 22.0657 84.9475 20.7761 84.2313 18.7701C84.088 18.4836 84.088 18.197 83.9448 17.9104C83.6582 16.7642 83.515 15.6179 83.515 14.4716C83.3717 12.8955 83.515 11.4627 83.8015 9.88657C84.088 8.16716 85.234 6.59104 86.8098 5.87463C87.8125 5.73134 88.8153 5.44478 89.818 5.44478H95.2615V0H101.565ZM95.2615 9.74328H92.3965C91.537 9.74328 90.8208 10.3164 90.391 11.0328C90.1045 11.606 89.9613 12.1791 89.9613 12.7522C89.818 13.7552 89.9613 14.6149 89.9613 15.6179C89.9613 15.9045 90.1045 16.191 90.1045 16.3343C90.391 17.194 91.2505 17.9104 92.2533 17.9104H94.402C94.9751 17.9104 95.2615 17.4806 95.2615 16.9075V10.3164C95.2615 10.1731 95.2615 10.0299 95.2615 9.74328Z" fill="white"/>
<path d="M0 25.6478H1.43251V41.5522C1.43251 41.8388 1.71901 42.1254 2.00551 42.1254H9.88428V29.803H11.1735V42.1254H19.0523C19.3388 42.1254 19.6253 41.8388 19.6253 41.5522V29.803H20.9146V41.9821C20.9146 42.6985 20.3416 43.1283 19.7686 43.2716H1.86226C1.57576 43.2716 1.28925 43.2716 1.146 43.1283C0.573002 42.9851 0.143251 42.5552 0 42.1254C0.143251 41.9821 0 41.8388 0 41.5522V25.6478Z" fill="white"/>
<path d="M32.5176 43.5582H27.7903C26.3578 43.4149 25.2118 42.4119 24.9253 40.9791C24.7821 40.406 24.7821 39.8328 24.7821 39.2597V28.3701C24.7821 28.2268 25.0686 28.0836 24.7821 27.9403C24.4956 27.797 24.6388 27.5104 24.6388 27.2239V8.16715C24.6388 6.87759 25.6416 5.73133 26.9308 5.58804C27.3606 5.58804 27.7903 5.44476 28.2201 5.44476H35.9556C36.5286 5.44476 37.1016 5.44476 37.5314 5.58804C39.6801 5.87461 41.5424 7.30745 42.1154 9.4567C42.4019 10.1731 42.5451 11.0328 42.5451 11.7492C42.6884 13.0388 42.6884 14.4716 42.5451 15.7612C42.4019 16.7642 42.2586 17.7671 41.9721 18.7701C41.3991 20.3463 40.1099 21.6358 38.3909 22.0657C37.3881 22.3522 36.5286 22.3522 35.5258 22.3522H30.7986V27.797H26.0713V39.403C26.0713 39.8328 26.0713 40.2627 26.2146 40.5492C26.3578 41.2657 26.9308 41.8388 27.6471 41.9821C28.0768 42.1254 28.5066 42.1254 28.9363 42.1254H33.3771C33.8068 42.1254 34.0933 41.6955 34.0933 41.4089V30.0895H35.3826V47.1403C35.3826 47.8567 34.8096 48.4298 34.0933 48.5731H28.0768C26.9308 48.5731 25.9281 48 25.3551 46.997C24.9253 46.1373 24.6388 44.991 24.7821 43.988H26.0713V44.5612C26.0713 44.991 26.2146 45.4209 26.2146 45.8507C26.3578 46.4239 26.7876 46.997 27.5038 47.1403C27.7903 47.2836 28.0768 47.2836 28.3633 47.2836H33.0906C33.8068 47.2836 34.0933 47.1403 34.0933 46.1373V43.1283L32.5176 43.5582ZM34.0933 17.7671C35.2393 17.6239 36.0988 16.7642 36.2421 15.6179C36.3853 14.4716 36.3853 13.1821 36.2421 12.0358C36.0988 10.7463 35.0961 9.88655 33.8068 9.88655H31.5148C31.0851 9.88655 30.7986 10.3164 30.7986 10.7463V17.6239C31.9446 17.9104 32.9473 17.9104 34.0933 17.7671Z" fill="white"/>
<path d="M45.4101 5.58804H56.0106C56.5836 5.58804 57.2999 5.58804 57.8729 5.87461C59.5919 6.16118 61.0244 7.59401 61.4541 9.31341C61.7406 10.1731 61.7406 10.8895 61.7406 11.7492V20.0597C61.5974 21.206 60.7379 22.2089 59.5919 22.3522C59.1621 22.4955 58.5891 22.4955 58.1594 22.4955H48.1318C47.7021 22.4955 47.2723 22.4955 46.8426 22.3522C45.6966 22.2089 44.6938 21.4925 44.2641 20.4895C44.1208 20.0597 43.9776 19.7731 43.8343 19.3433C43.5478 18.0537 43.5478 16.6209 43.6911 15.3313C43.6911 14.9015 43.8343 14.3283 43.9776 13.8985C44.2641 12.8955 45.1236 12.0358 46.1263 11.8925C46.6993 11.7492 47.2723 11.7492 47.8453 11.7492H55.2944V11.606C55.8674 10.603 55.2944 9.88655 54.4349 9.74327C54.1484 9.74327 53.7186 9.59998 53.4321 9.59998H44.9803V5.44476L45.4101 5.58804ZM51.4266 15.7612C51.1401 15.7612 50.9968 15.7612 50.7103 15.9045C50.2806 16.0477 49.9941 16.3343 50.1373 16.7642C50.1373 17.3373 50.2806 17.6239 50.7103 17.7671C50.8536 17.7671 51.1401 17.9104 51.2833 17.9104H55.0079C55.4376 17.9104 55.8674 17.4806 55.7241 16.9074V15.7612H51.4266Z" fill="white"/>
<path d="M75.7795 22.3522V16.0477H70.1927V22.4955H64.033C63.8897 21.9224 63.8897 5.87461 64.033 5.58804C64.7492 5.44476 69.9062 5.44476 70.1927 5.58804V11.4627H75.7795V5.44476H81.9393V22.3522C81.3663 22.4955 76.066 22.4955 75.7795 22.3522Z" fill="white"/>
<path d="M47.2729 30.9492V42.9851H45.9837V30.9492H40.1104C39.8239 30.9492 39.5374 31.2358 39.5374 31.5224V42.9851H38.2482V30.9492C38.2482 30.3761 38.6779 29.9463 39.2509 29.9463H54.149C54.722 29.9463 55.1517 30.5194 55.1517 31.0925V43.2716H53.8625V31.6657C53.8625 31.3791 53.576 31.0925 53.2895 31.0925H52.8597L47.2729 30.9492Z" fill="white"/>
<path d="M59.3059 30.5194V41.1224C59.3059 41.8388 59.4491 41.9821 60.1654 41.9821H67.3279V29.9463H68.6171V42.1254H70.3361V43.2716H59.8788C59.5924 43.2716 59.4491 43.2716 59.1626 43.1283C58.5896 42.9851 58.1598 42.5552 58.1598 41.9821V29.803H59.4491L59.3059 30.5194Z" fill="white"/>
<path d="M69.6198 50.7224C69.5195 50.8227 69.3476 50.923 69.2044 51.009C69.319 50.9087 69.4479 50.8084 69.5912 50.6937C69.5912 50.6937 69.6007 50.7033 69.6198 50.7224Z" fill="#E30613"/>
<path d="M50.6105 95.7707C50.6105 95.7707 50.7108 95.914 50.7108 96C50.6821 95.9284 50.6392 95.8424 50.6105 95.7707Z" fill="#E30613"/>
<path d="M79.0312 61.6406C77.8709 62.0704 76.6819 62.4143 75.4786 62.7009C75.5502 62.6006 75.7078 62.5289 75.9227 62.4716C76.7822 62.1851 77.6417 62.0418 78.5012 61.7552C78.7161 61.7552 78.845 61.6692 79.0312 61.6406Z" fill="#E30613"/>
<path d="M85.2343 63.6179C85.3489 63.2884 85.2916 62.9731 85.134 62.7725C85.2343 62.7869 85.2486 62.9158 85.3775 63.0448C85.4921 63.2884 85.4205 63.5176 85.22 63.6895C85.2343 63.6752 85.2343 63.6466 85.2343 63.6179Z" fill="#E30613"/>
<path d="M85.22 63.6895C85.22 63.6895 85.1339 63.7325 85.091 63.7612C84.8045 63.9045 84.518 64.0478 84.0882 64.191C83.0855 64.4776 81.9395 64.6209 80.7935 64.4776C80.2205 64.4776 79.5042 64.4776 78.7879 64.3343C77.9284 64.191 77.2122 64.0478 76.3527 63.7612C76.0662 63.6179 75.7797 63.4746 75.6364 63.3313C75.3643 63.0591 75.321 62.8585 75.4786 62.7009C75.5502 62.6006 75.7078 62.5289 75.9227 62.4716C76.7822 62.1851 77.6417 62.0418 78.5012 61.7552C78.7161 61.7552 78.845 61.6692 79.0312 61.6406C79.0455 61.6263 79.0601 61.6263 79.0745 61.6406C79.1174 61.6119 79.1604 61.6119 79.2177 61.6119C80.0772 61.6119 80.9367 61.6119 81.653 61.7552C82.5125 61.7552 83.372 62.0418 84.2315 62.3284C84.518 62.4716 84.8045 62.6149 85.091 62.7582C85.091 62.7582 85.1197 62.7582 85.134 62.7725C85.2343 62.7869 85.2486 62.9158 85.3775 63.0448C85.4921 63.2884 85.4205 63.5176 85.22 63.6895Z" fill="#E30613"/>
<path d="M69.4762 55.3075C70.0492 54.0179 70.9087 52.7284 72.0547 51.7254C72.771 50.8657 73.6305 50.1493 74.6332 49.5761C75.063 49.2896 75.4927 49.003 76.0657 48.8597C76.6387 48.7164 76.9252 49.003 76.9252 49.5761C76.9252 50.006 76.782 50.4358 76.6387 50.8657C76.209 51.8687 75.636 52.8717 74.9197 53.5881C74.6332 54.0179 74.2035 54.3045 73.7737 54.3045C73.4872 54.4478 73.2007 54.4478 73.0575 54.5911L69.1897 55.8806C69.333 55.594 69.333 55.4508 69.4762 55.3075Z" fill="#E30613"/>
<path d="M59.4487 50.5791C59.3054 50.5791 59.1622 50.4358 59.1622 50.4358C59.1622 50.2925 59.1622 50.1493 59.3054 50.1493C59.4487 50.006 59.7352 50.006 59.8784 50.006C60.1649 50.1493 60.4514 50.1493 60.7379 50.1493H61.5974C62.4569 50.2925 63.3164 50.4358 64.1759 50.4358C64.7489 50.5791 65.4652 50.5791 66.0382 50.5791C66.8977 50.5791 67.1842 50.1493 67.041 49.2896C66.8977 48.8597 66.7545 48.2866 66.6112 47.8567C66.468 47.8567 66.3247 47.8567 66.1815 47.7134C66.0382 47.7134 66.0382 47.5701 65.895 47.4269C65.895 47.1403 66.0382 46.997 66.468 46.8537C66.8977 46.7104 67.1842 46.997 67.1842 47.2836V47.5701L67.4707 47.7134C68.0437 48 68.4735 48.5731 68.6167 49.2896C68.76 49.7194 68.9032 50.006 69.1897 50.2925C69.3186 50.4215 69.4622 50.5648 69.5912 50.6937C69.4479 50.8084 69.319 50.9087 69.2044 51.009C69.1471 51.0519 69.1038 51.1092 69.0465 51.1522C68.8602 51.2382 68.7313 51.3958 68.6454 51.5678C68.6167 51.6107 68.5881 51.6537 68.5737 51.6967C68.5308 51.754 68.5021 51.8113 68.4735 51.8687C68.4735 52.0119 68.3302 52.0119 68.3302 52.1552C68.187 52.5851 68.4735 52.8716 68.9032 53.0149C69.1897 53.1582 69.333 53.1582 69.6195 53.1582H70.3357C70.3357 53.3015 70.1925 53.3015 70.0492 53.4448C68.4735 54.4478 66.7545 55.4507 65.0355 56.3104C64.7489 56.4537 64.6057 56.7403 64.1759 56.7403C64.0327 56.7403 63.8894 56.597 63.8894 56.4537C63.8894 56.3105 63.8894 56.1672 64.0327 56.0239C64.1282 55.9284 64.2237 55.8806 64.3192 55.8806C64.8922 55.594 65.3219 55.1642 65.6085 54.7343C65.895 54.3045 65.7517 54.0179 65.1787 53.8746C64.8922 53.8746 64.7489 53.7313 64.4624 53.7313C63.3164 53.7313 62.1704 53.8746 61.0244 54.1612C60.7379 54.1612 60.3082 54.1612 60.1649 54.591C60.0933 54.6627 59.993 54.7057 59.8784 54.7057C59.7638 54.7057 59.6636 54.6627 59.5919 54.591C59.4487 54.591 59.4487 54.4478 59.4487 54.3045C59.4487 54.1612 59.7352 54.0179 59.8784 54.0179H60.3082C61.4542 53.7313 62.4569 53.4448 63.4597 52.8716C63.7462 52.7284 63.8894 52.5851 64.1759 52.4418C64.6057 52.0119 64.6057 51.7254 64.1759 51.4388C63.8894 51.2955 63.7462 51.1522 63.4597 51.1522C62.7434 51.0089 61.8839 50.7224 61.0244 50.5791C60.5947 50.4358 60.1649 50.4358 59.7352 50.5791H59.4487Z" fill="#E30613"/>
<path d="M72.9142 33.2418C72.771 33.0985 72.9142 32.8119 73.0575 32.6686C73.2007 32.5254 73.4872 32.6686 73.6305 32.8119C73.7738 32.9552 73.7737 32.9552 73.917 33.0985C74.6332 33.5283 75.4928 33.8149 76.209 34.1015C76.4955 34.2448 76.9253 34.2448 77.2118 34.2448H77.355C77.6415 34.2448 77.928 33.8149 77.928 33.5283C77.928 33.0985 77.7848 32.8119 77.7848 32.5254C77.4983 31.8089 77.0685 31.0925 76.782 30.3761C76.6388 30.0895 76.4955 29.9463 76.209 29.803C76.1087 29.7027 76.0085 29.6024 76.0085 29.5021C76.0085 29.4591 76.0228 29.4161 76.0658 29.3731C76.0658 29.2298 76.209 29.0865 76.4955 29.0865C76.6388 29.0865 76.782 29.2298 76.782 29.5164C76.782 29.803 76.9253 29.9463 77.0685 30.0895C77.355 30.3761 77.4983 30.5194 77.6415 30.806C77.928 31.2358 78.0713 31.5224 78.3578 31.9522C78.6443 32.3821 78.9308 32.9552 79.2173 33.3851C79.9335 34.5313 80.6498 34.5313 81.366 33.3851C81.6525 32.9552 81.7958 32.6686 82.0823 32.2388C82.2255 32.0955 82.2255 31.8089 82.0823 31.6657C82.0393 31.594 82.025 31.508 82.025 31.4364C82.025 31.2501 82.1539 31.0925 82.3688 31.0925C82.6553 30.9492 82.9418 30.9492 83.085 31.2358C83.2283 31.5224 83.2283 31.8089 83.085 31.9522C82.9418 32.0955 82.9418 32.3821 82.9418 32.5254C83.085 33.0985 82.9418 33.6716 82.512 34.2448C82.0823 34.8179 81.7958 35.5343 81.7958 36.394V36.9671C81.7958 37.397 81.6525 37.6836 81.366 38.1134C81.2228 37.397 81.2228 36.9671 81.0795 36.6806C80.9363 36.394 80.793 35.9642 80.3633 35.9642C79.9335 35.9642 79.647 36.1074 79.5038 36.5373C79.647 36.2507 79.9335 36.1074 80.22 36.1074C80.5065 36.1074 80.6498 36.394 80.6498 36.6806C80.6498 36.8239 80.793 36.9671 80.793 37.1104C80.9363 37.6836 81.0795 38.4 81.0795 38.8298C81.0795 39.5463 81.0795 40.1194 80.9363 40.6925C80.793 41.6955 80.6498 42.6985 80.22 43.5582C80.0768 43.8448 79.9335 44.1313 79.7903 44.2746C79.3605 44.8477 78.9308 44.8477 78.6443 44.1313C78.501 43.8448 78.501 43.5582 78.3578 43.2716C78.2145 41.9821 78.2145 40.6925 78.501 39.403C78.6443 38.7009 78.7732 38.1421 79.0597 37.4543C78.9737 37.6406 78.8878 37.8125 78.7875 37.9701C78.7875 38.1134 78.6443 38.2567 78.6443 38.4C77.355 38.4 76.0658 38.1134 74.7765 37.8268C74.6333 37.9701 74.49 37.9701 74.49 38.1134C74.3467 38.2567 74.2035 38.2567 74.0603 38.1134C73.917 37.9701 73.917 37.8268 73.917 37.6836C73.917 37.5403 74.0602 37.397 74.2035 37.397H74.6332C75.2062 37.5403 75.9225 37.5403 76.3523 37.2537C76.4478 37.2537 76.5433 37.206 76.6388 37.1104C76.9253 36.8239 77.0685 36.394 76.782 36.1074C76.6388 35.8209 76.3522 35.391 76.0658 35.1045C75.3495 34.5313 74.6332 33.9582 73.917 33.3851C73.7737 33.2418 73.6305 33.2418 73.4873 33.3851C73.344 33.5283 73.0575 33.3851 72.9142 33.2418Z" fill="#E30613"/>
<path d="M80.7933 42.6985C82.5123 42.412 84.2313 42.412 85.8071 42.9851V43.2717C85.6638 43.9881 85.5205 44.7045 85.234 45.4209C85.1385 45.7075 84.9953 45.8508 84.8043 45.8508C83.8015 45.8508 82.6555 45.8508 81.6528 45.5642C80.9365 45.4209 80.2203 45.2776 79.504 44.8478C80.2203 44.2746 80.65 43.5582 80.7933 42.6985Z" fill="#E30613"/>
<path d="M84.2311 59.3194C82.5694 60.2364 80.8508 61.0102 79.0745 61.6406C79.0601 61.6263 79.0455 61.6263 79.0312 61.6406C78.845 61.6692 78.7161 61.7552 78.5012 61.7552C77.6417 62.0418 76.7822 62.1851 75.9227 62.4716C75.7078 62.5289 75.5502 62.6006 75.4786 62.7009C73.9315 63.0734 72.3557 63.3314 70.7656 63.4746C69.6196 63.6179 68.6168 63.6179 67.4708 63.9045C63.1733 64.6209 59.1623 66.3403 55.7243 69.0627C53.1458 71.0687 51.1403 73.6478 49.851 76.8C48.4185 80.3821 47.9888 84.2508 48.5618 88.1194C48.9772 90.7558 49.5215 93.249 50.5959 95.7421L50.5673 95.7135C50.2808 95.1403 49.9943 94.7105 49.851 94.1373C48.4185 91.1284 47.4157 87.9761 47.1292 84.6806C46.8427 81.8149 47.1292 78.9493 47.8455 76.2269C48.9915 72.5015 50.8538 69.206 53.4323 66.4836C57.1568 62.4717 61.7408 59.3194 66.7546 57.3134C69.7628 56.0239 72.9143 55.0209 76.0658 53.8746C77.7849 53.3015 79.5039 52.5851 81.0796 51.7254C82.9419 50.7224 84.3744 49.1463 85.0906 47.2836C85.3771 46.7105 85.5204 46.1373 85.6636 45.5642C86.2366 43.2717 86.6664 40.9791 86.8096 38.6866C86.8096 38.4 86.8096 38.2567 86.5231 37.9702C85.2339 36.1075 84.6609 33.8149 85.0906 31.6657C85.2339 30.0896 85.8069 28.6567 86.8096 27.3672C86.9529 27.0806 87.2394 26.9373 87.3826 26.6508C87.6691 26.3642 87.8124 26.3642 88.2421 26.6508C88.5286 26.9373 88.6719 27.0806 88.9584 27.3672C90.5341 29.3732 91.6801 31.6657 91.9666 34.2448C92.2531 35.6776 91.9667 37.1105 91.1071 38.4C90.9639 38.6866 90.9639 38.9731 91.1071 39.1164C91.9667 40.9791 92.5396 42.8418 92.6829 44.8478C93.1126 48.2866 92.2532 51.7254 90.1044 54.4478C88.5286 56.4537 86.5231 58.1732 84.2311 59.3194Z" fill="#E30613"/>
<path d="M94.8318 64.0478C94.9751 64.191 94.9751 64.3343 94.8318 64.4776C94.6886 64.7642 94.4021 64.9075 94.2588 64.7642C94.1156 64.7642 94.1156 64.6209 93.9723 64.4776C93.8291 64.3343 93.8291 64.3343 93.6858 64.3343C92.5398 64.0478 91.2506 63.9045 90.1046 63.9045C89.8181 63.9045 89.5316 64.0478 89.2451 64.0478H89.1018C88.6721 64.191 88.5288 64.6209 88.6721 65.0508C88.8153 65.4806 89.1018 65.9104 89.3883 66.3403C89.9613 67.0567 90.6776 67.7731 91.2506 68.4895C91.3938 68.6328 91.5371 68.6328 91.5371 68.6328C91.6803 68.7761 91.8236 68.7761 91.8236 68.9194C91.8236 69.206 91.6803 69.4925 91.3938 69.4925C91.1073 69.4925 90.8208 69.3493 90.8208 69.0627C90.8208 68.9194 90.8208 68.7761 90.6776 68.6328C89.8181 67.9164 88.8153 67.3433 87.8126 66.7701C87.3828 66.6269 86.9531 66.4836 86.6665 66.4836H86.5233C86.0936 66.4836 85.6638 66.7701 85.6638 67.2C85.5205 67.9164 85.6638 68.7761 86.0936 69.3493C86.2368 69.4925 86.2368 69.6358 86.2368 69.7791C86.2368 69.9224 86.2368 70.209 86.0936 70.3522C85.9503 70.4955 85.6638 70.4955 85.5206 70.3522C85.3773 70.209 85.234 70.0657 85.3773 69.7791C85.3773 69.6358 85.5205 69.4925 85.6638 69.3493C84.661 67.9164 83.8015 66.3403 83.0853 64.6209L83.6583 64.4776C84.088 64.3343 84.661 64.191 84.9475 63.9045C85.0621 63.9045 85.177 63.8042 85.22 63.6895C85.4205 63.5176 85.4921 63.2884 85.3775 63.0448C85.2486 62.9158 85.2343 62.7869 85.134 62.7725C85.091 62.7009 85.0192 62.6436 84.9475 62.6149C84.661 62.4716 84.3745 62.1851 84.088 62.0418C83.8015 61.8985 83.6583 61.8985 83.2285 61.7552C83.3718 61.6119 83.515 61.4687 83.6583 61.4687C84.088 61.1821 84.3745 61.0388 84.8043 60.8955C85.6638 60.609 86.3801 60.0358 86.9531 59.3194C87.2396 58.8896 87.8126 58.4597 88.2423 58.3164L89.1018 58.0299C89.3883 57.3134 89.5316 57.3134 90.1046 57.3134C90.3194 57.4137 90.4484 57.6 90.4484 57.8006C90.4484 57.8722 90.434 57.9582 90.3911 58.0299C90.2478 58.4597 89.9613 58.603 89.3883 58.4597C88.8153 58.8895 88.3856 59.4627 87.9558 60.0358C87.8126 60.3224 87.6693 60.609 87.5261 60.7522C87.3828 61.1821 87.5261 61.6119 87.9558 61.7552C88.2423 61.8985 88.3856 62.0418 88.6721 62.0418C89.2451 62.1851 89.9613 62.3284 90.5343 62.4716C91.6803 62.6149 92.8263 63.0448 93.8291 63.6179L94.2588 63.7612C94.4021 63.7612 94.6886 63.7612 94.8318 64.0478Z" fill="#E30613"/>
<path d="M104 37.5403L103.857 38.4C103.57 38.5433 103.427 38.6866 103.141 38.4H102.854C101.995 38.6866 101.135 38.9732 100.275 39.403C99.989 39.5463 99.7025 39.6896 99.416 39.9761C99.2727 40.1194 99.1295 40.2627 98.9862 40.406C98.843 40.8358 99.1295 41.2657 99.416 41.409C99.8457 41.8388 100.419 41.9821 100.992 41.9821H101.278C101.421 42.1254 101.565 42.2687 101.565 42.412C101.565 42.5552 101.421 42.6985 101.278 42.8418C101.135 42.8418 100.992 42.8418 100.848 42.6985C100.705 42.5552 100.705 42.412 100.562 42.412C98.9862 42.412 97.4105 42.1254 95.8347 41.8388C95.978 41.6955 96.1212 41.5523 96.1212 41.409C96.2072 41.28 96.2502 41.1367 96.2502 40.9935C96.1212 41.28 95.978 41.5523 95.6915 41.6955C94.9752 42.412 94.1157 43.1284 93.2562 43.7015C93.113 43.7015 93.113 43.8448 92.9697 43.8448L92.54 41.6955C92.9697 41.1224 93.8292 40.406 94.6887 39.8329L94.1157 39.9761C94.1157 39.5463 94.259 39.2597 94.259 38.8299C94.5455 38.1134 94.5455 37.2537 94.259 36.5373C94.1157 36.1075 94.1157 35.5343 94.259 35.1045C94.4022 34.9612 94.4022 34.6746 94.5455 34.3881V34.1015C94.4882 33.9869 94.4452 33.8579 94.4452 33.7576C94.4452 33.6 94.5168 33.4711 94.6887 33.3851C94.832 33.2418 95.1185 33.2418 95.405 33.3851C95.4766 33.4567 95.5196 33.6 95.5196 33.7433C95.5196 33.8866 95.4766 34.0299 95.405 34.1015C95.2617 34.2448 95.2617 34.3881 95.2617 34.5314C95.405 34.9612 95.5482 35.5343 95.5482 35.9642C95.5482 36.2508 95.6915 36.394 95.8347 36.5373C95.9207 36.8096 96.1929 36.9099 96.4364 36.9099C96.594 36.9099 96.7372 36.8812 96.8375 36.8239C97.124 36.6806 97.4105 36.5373 97.697 36.2508C98.27 35.8209 98.6997 35.3911 99.1295 35.1045C99.7025 34.5314 100.275 34.2448 100.848 33.8149C100.992 33.8149 101.135 33.6717 101.135 33.5284C101.135 33.3851 101.278 33.2418 101.422 33.2418C101.708 33.2418 101.851 33.3851 101.851 33.5284C101.851 33.8149 101.708 33.9582 101.565 33.9582C101.422 33.9582 101.278 33.9582 101.135 34.1015C100.275 34.8179 99.7025 35.5343 99.1295 36.394C98.9862 36.6806 98.843 36.8239 98.843 37.1105C98.8143 37.1678 98.8 37.2251 98.8 37.2824C98.8 37.5403 99.0435 37.8269 99.2727 37.8269C99.5592 37.9702 99.8457 37.9702 100.275 37.9702C101.135 37.9702 102.138 37.8269 102.997 37.6836C103.093 37.6836 103.188 37.6358 103.284 37.5403C103.355 37.4687 103.499 37.4257 103.642 37.4257C103.785 37.4257 103.928 37.4687 104 37.5403Z" fill="#E30613"/>
<path d="M74.7771 48.8597L74.2041 49.2896C73.0581 50.1493 72.0554 51.009 71.1958 52.1552C71.0526 52.2985 70.9093 52.4418 70.7661 52.4418C70.1931 52.5851 69.6201 52.5851 69.0471 52.4418C68.5887 52.3272 68.4018 52.0263 68.5737 51.6967C68.5881 51.6537 68.6167 51.6107 68.6454 51.5678C68.674 51.5248 68.7176 51.4818 68.7606 51.4388L69.0465 51.1522C69.0465 51.1522 69.1471 51.0519 69.2044 51.009C69.319 50.9087 69.4479 50.8084 69.5912 50.6937C69.6485 50.6651 69.706 50.6221 69.7633 50.5791C70.7661 49.8627 71.9121 49.4328 73.2013 49.1463C73.6311 49.1463 74.0609 49.003 74.7771 48.8597Z" fill="#E30613"/>
</svg>
