<svg width="65" height="60" viewBox="0 0 65 60" fill="none" xmlns="http://www.w3.org/2000/svg">
<path d="M0 2.0597C0 1.8806 0.0895316 1.79104 0.0895316 1.70149C0.179063 0.895522 0.716253 0.268657 1.52204 0.0895522C1.58172 0.0298507 1.64141 0 1.7011 0H13.2507V3.49254H5.1033C4.74517 3.49254 4.56611 3.76119 4.56611 4.1194V5.28358H10.8333C11.1019 5.28358 11.3705 5.28358 11.6391 5.37313C12.7135 5.46269 13.6088 6.26866 13.8774 7.25373C13.8774 7.43284 13.9669 7.52239 13.9669 7.70149C14.146 8.59702 14.146 9.49254 14.146 10.3881C14.146 11.0149 14.0565 11.6418 13.7879 12.1791C13.5193 13.0746 12.803 13.7015 11.9077 13.9701C11.5496 14.0597 11.281 14.0597 10.9228 14.0597H1.96969C1.07438 14.0597 0.268595 13.4328 0.0895316 12.5373C0.0895316 12.4478 0 12.3582 0 12.2687V2.0597ZM4.56611 8.41791V10.0299C4.56611 10.4776 4.74517 10.6567 5.19283 10.6567H8.32644C8.5055 10.6567 8.68456 10.6567 8.86362 10.5672C9.22175 10.5672 9.40081 10.2985 9.49035 9.9403V9.22388C9.49035 8.86567 9.22175 8.59702 8.95316 8.50746C8.77409 8.41791 8.5055 8.41791 8.32644 8.41791H4.56611Z" fill="black"/>
<path d="M63.4779 0V11.5522C63.4779 11.9104 63.4779 12.3582 63.3883 12.7164C63.2988 13.3433 62.8511 13.791 62.2244 13.8806C61.8663 13.9701 61.5977 13.9701 61.2396 13.9701H56.3153C56.0467 13.9701 55.6886 13.9701 55.42 13.8806C54.1666 13.791 53.0922 12.9851 52.6445 11.7313C52.555 11.5522 52.555 11.3731 52.4655 11.194C52.2864 10.4776 52.1969 9.76119 52.1969 9.04478C52.1073 8.0597 52.1969 7.16418 52.3759 6.1791C52.555 5.10448 53.2713 4.1194 54.2561 3.67164C54.8828 3.58209 55.5095 3.40299 56.1363 3.40299H59.5385V0H63.4779ZM59.5385 6.08955H57.7478C57.2106 6.08955 56.763 6.44776 56.4944 6.89552C56.3153 7.25373 56.2258 7.61194 56.2258 7.97015C56.1363 8.59701 56.2258 9.13433 56.2258 9.76119C56.2258 9.9403 56.3153 10.1194 56.3153 10.209C56.4944 10.7463 57.0316 11.194 57.6583 11.194H59.0013C59.3594 11.194 59.5385 10.9254 59.5385 10.5672V6.44776C59.5385 6.35821 59.5385 6.26866 59.5385 6.08955Z" fill="black"/>
<path d="M0 16.0298H0.895316V25.9701C0.895316 26.1493 1.07438 26.3284 1.25344 26.3284H6.17768V18.6269H6.98346V26.3284H11.9077C12.0868 26.3284 12.2658 26.1493 12.2658 25.9701V18.6269H13.0716V26.2388C13.0716 26.6866 12.7135 26.9552 12.3554 27.0448H1.16391C0.984847 27.0448 0.805784 27.0448 0.716253 26.9552C0.358126 26.8657 0.0895316 26.597 0 26.3284C0.0895316 26.2388 0 26.1493 0 25.9701V16.0298Z" fill="black"/>
<path d="M20.3235 27.2239H17.3689C16.4736 27.1343 15.7574 26.5075 15.5783 25.6119C15.4888 25.2537 15.4888 24.8955 15.4888 24.5373V17.7313C15.4888 17.6418 15.6678 17.5522 15.4888 17.4627C15.3097 17.3731 15.3993 17.194 15.3993 17.0149V5.10447C15.3993 4.2985 16.026 3.58208 16.8318 3.49253C17.1004 3.49253 17.3689 3.40297 17.6375 3.40297H22.4722C22.8304 3.40297 23.1885 3.40297 23.4571 3.49253C24.8001 3.67163 25.964 4.56715 26.3221 5.91044C26.5012 6.3582 26.5907 6.89551 26.5907 7.34327C26.6802 8.14924 26.6802 9.04477 26.5907 9.85074C26.5012 10.4776 26.4116 11.1045 26.2326 11.7313C25.8744 12.7164 25.0687 13.5224 23.9943 13.791C23.3676 13.9701 22.8304 13.9701 22.2037 13.9701H19.2491V17.3731H16.2946V24.6269C16.2946 24.8955 16.2946 25.1642 16.3841 25.3433C16.4736 25.791 16.8318 26.1492 17.2794 26.2388C17.548 26.3283 17.8166 26.3283 18.0852 26.3283H20.8607C21.1293 26.3283 21.3083 26.0597 21.3083 25.8806V18.806H22.1141V29.4627C22.1141 29.9104 21.756 30.2686 21.3083 30.3582H17.548C16.8318 30.3582 16.205 30 15.8469 29.3731C15.5783 28.8358 15.3993 28.1194 15.4888 27.4925H16.2946V27.8507C16.2946 28.1194 16.3841 28.3881 16.3841 28.6567C16.4736 29.0149 16.7422 29.3731 17.1899 29.4627C17.3689 29.5522 17.548 29.5522 17.7271 29.5522H20.6816C21.1293 29.5522 21.3083 29.4627 21.3083 28.8358V26.9552L20.3235 27.2239ZM21.3083 11.1045C22.0246 11.0149 22.5618 10.4776 22.6513 9.76118C22.7408 9.04476 22.7408 8.23879 22.6513 7.52238C22.5618 6.71641 21.9351 6.17909 21.1293 6.17909H19.6968C19.4282 6.17909 19.2491 6.44775 19.2491 6.71641V11.0149C19.9654 11.194 20.5921 11.194 21.3083 11.1045Z" fill="black"/>
<path d="M28.3813 3.49253H35.0066C35.3648 3.49253 35.8124 3.49253 36.1705 3.67163C37.2449 3.85074 38.1402 4.74626 38.4088 5.82088C38.5879 6.3582 38.5879 6.80596 38.5879 7.34327V12.5373C38.4984 13.2537 37.9612 13.8806 37.2449 13.9701C36.9763 14.0597 36.6182 14.0597 36.3496 14.0597H30.0824C29.8138 14.0597 29.5452 14.0597 29.2766 13.9701C28.5604 13.8806 27.9336 13.4328 27.665 12.806C27.5755 12.5373 27.486 12.3582 27.3964 12.0895C27.2174 11.2836 27.2174 10.388 27.3069 9.58208C27.3069 9.31342 27.3965 8.95521 27.486 8.68656C27.665 8.05969 28.2022 7.52238 28.829 7.43283C29.1871 7.34327 29.5452 7.34327 29.9033 7.34327H34.559V7.25372C34.9171 6.62685 34.559 6.17909 34.0218 6.08954C33.8427 6.08954 33.5741 5.99999 33.3951 5.99999H28.1127V3.40297L28.3813 3.49253ZM32.1416 9.85074C31.9626 9.85074 31.873 9.85074 31.694 9.94029C31.4254 10.0298 31.2463 10.2089 31.3358 10.4776C31.3358 10.8358 31.4254 11.0149 31.694 11.1045C31.7835 11.1045 31.9626 11.194 32.0521 11.194H34.3799C34.6485 11.194 34.9171 10.9254 34.8276 10.5672V9.85074H32.1416Z" fill="black"/>
<path d="M47.3622 13.9701V10.0298H43.8705V14.0597H40.0206C39.9311 13.7015 39.9311 3.67163 40.0206 3.49253C40.4683 3.40297 43.6914 3.40297 43.8705 3.49253V7.16417H47.3622V3.40297H51.2121V13.9701C50.8539 14.0597 47.5413 14.0597 47.3622 13.9701Z" fill="black"/>
<path d="M29.5456 19.3433V26.8657H28.7398V19.3433H25.069C24.8899 19.3433 24.7109 19.5224 24.7109 19.7015V26.8657H23.9051V19.3433C23.9051 18.9851 24.1737 18.7164 24.5318 18.7164H33.8431C34.2012 18.7164 34.4698 19.0746 34.4698 19.4328V27.0448H33.664V19.791C33.664 19.6119 33.485 19.4328 33.3059 19.4328H33.0373L29.5456 19.3433Z" fill="black"/>
<path d="M37.0662 19.0746V25.7015C37.0662 26.1492 37.1557 26.2388 37.6033 26.2388H42.0799V18.7164H42.8857V26.3283H43.9601V27.0448H37.4243C37.2452 27.0448 37.1557 27.0448 36.9766 26.9552C36.6185 26.8657 36.3499 26.597 36.3499 26.2388V18.6269H37.1557L37.0662 19.0746Z" fill="black"/>
<path d="M43.5124 31.7015C43.4497 31.7642 43.3423 31.8269 43.2528 31.8806C43.3244 31.8179 43.405 31.7552 43.4945 31.6836C43.4945 31.6836 43.5005 31.6896 43.5124 31.7015Z" fill="#E30613"/>
<path d="M31.6316 59.8567C31.6316 59.8567 31.6942 59.9463 31.6942 60C31.6763 59.9552 31.6495 59.9015 31.6316 59.8567Z" fill="#E30613"/>
<path d="M49.3945 38.5254C48.6693 38.794 47.9262 39.0089 47.1741 39.188C47.2189 39.1254 47.3174 39.0806 47.4517 39.0448C47.9889 38.8657 48.5261 38.7761 49.0632 38.597C49.1975 38.597 49.2781 38.5433 49.3945 38.5254Z" fill="#E30613"/>
<path d="M53.2714 39.7612C53.3431 39.5552 53.3072 39.3582 53.2088 39.2328C53.2714 39.2418 53.2804 39.3224 53.361 39.403C53.4326 39.5552 53.3878 39.6985 53.2625 39.806C53.2714 39.797 53.2714 39.7791 53.2714 39.7612Z" fill="#E30613"/>
<path d="M53.2625 39.806C53.2625 39.806 53.2087 39.8328 53.1819 39.8507C53.0028 39.9403 52.8237 40.0299 52.5551 40.1194C51.9284 40.2985 51.2122 40.3881 50.4959 40.2985C50.1378 40.2985 49.6901 40.2985 49.2425 40.209C48.7053 40.1194 48.2576 40.0299 47.7204 39.8507C47.5414 39.7612 47.3623 39.6716 47.2728 39.5821C47.1027 39.4119 47.0756 39.2866 47.1741 39.188C47.2189 39.1254 47.3174 39.0806 47.4517 39.0448C47.9889 38.8657 48.5261 38.7761 49.0632 38.597C49.1975 38.597 49.2781 38.5433 49.3945 38.5254C49.4035 38.5164 49.4126 38.5164 49.4215 38.5254C49.4484 38.5075 49.4753 38.5075 49.5111 38.5075C50.0483 38.5075 50.5854 38.5075 51.0331 38.597C51.5703 38.597 52.1075 38.7761 52.6447 38.9552C52.8237 39.0448 53.0028 39.1343 53.1819 39.2239C53.1819 39.2239 53.1998 39.2239 53.2088 39.2328C53.2714 39.2418 53.2804 39.3224 53.361 39.403C53.4326 39.5552 53.3878 39.6985 53.2625 39.806Z" fill="#E30613"/>
<path d="M43.4226 34.5672C43.7808 33.7612 44.3179 32.9552 45.0342 32.3284C45.4819 31.7911 46.019 31.3433 46.6458 30.9851C46.9144 30.806 47.183 30.6269 47.5411 30.5373C47.8992 30.4478 48.0783 30.6269 48.0783 30.9851C48.0783 31.2537 47.9887 31.5224 47.8992 31.7911C47.6306 32.4179 47.2725 33.0448 46.8248 33.4925C46.6458 33.7612 46.3772 33.9403 46.1086 33.9403C45.9295 34.0299 45.7505 34.0299 45.6609 34.1194L43.2436 34.9254C43.3331 34.7463 43.3331 34.6567 43.4226 34.5672Z" fill="#E30613"/>
<path d="M37.1554 31.6119C37.0659 31.6119 36.9764 31.5224 36.9764 31.5224C36.9764 31.4328 36.9764 31.3433 37.0659 31.3433C37.1554 31.2537 37.3345 31.2537 37.424 31.2537C37.6031 31.3433 37.7821 31.3433 37.9612 31.3433H38.4984C39.0356 31.4328 39.5728 31.5224 40.11 31.5224C40.4681 31.6119 40.9157 31.6119 41.2739 31.6119C41.8111 31.6119 41.9901 31.3433 41.9006 30.806C41.8111 30.5373 41.7215 30.1791 41.632 29.9104C41.5425 29.9104 41.4529 29.9104 41.3634 29.8209C41.2739 29.8209 41.2739 29.7313 41.1843 29.6418C41.1843 29.4627 41.2739 29.3731 41.5425 29.2836C41.8111 29.194 41.9901 29.3731 41.9901 29.5522V29.7313L42.1692 29.8209C42.5273 30 42.7959 30.3582 42.8854 30.806C42.975 31.0746 43.0645 31.2537 43.2436 31.4328C43.3241 31.5134 43.4139 31.603 43.4945 31.6836C43.405 31.7552 43.3244 31.8179 43.2528 31.8806C43.2169 31.9075 43.1898 31.9433 43.154 31.9701C43.0376 32.0239 42.9571 32.1224 42.9033 32.2299C42.8854 32.2567 42.8675 32.2836 42.8586 32.3105C42.8317 32.3463 42.8138 32.3821 42.7959 32.4179C42.7959 32.5075 42.7064 32.5075 42.7064 32.597C42.6168 32.8657 42.7959 33.0448 43.0645 33.1343C43.2436 33.2239 43.3331 33.2239 43.5122 33.2239H43.9598C43.9598 33.3134 43.8703 33.3134 43.7808 33.403C42.7959 34.0298 41.7215 34.6567 40.6472 35.194C40.4681 35.2836 40.3786 35.4627 40.11 35.4627C40.0204 35.4627 39.9309 35.3731 39.9309 35.2836C39.9309 35.194 39.9309 35.1045 40.0204 35.0149C40.0801 34.9552 40.1398 34.9254 40.1995 34.9254C40.5576 34.7463 40.8262 34.4776 41.0053 34.209C41.1843 33.9403 41.0948 33.7612 40.7367 33.6716C40.5576 33.6716 40.4681 33.5821 40.289 33.5821C39.5728 33.5821 38.8565 33.6716 38.1403 33.8507C37.9612 33.8507 37.6926 33.8507 37.6031 34.1194C37.5583 34.1642 37.4956 34.191 37.424 34.191C37.3524 34.191 37.2897 34.1642 37.245 34.1194C37.1554 34.1194 37.1554 34.0299 37.1554 33.9403C37.1554 33.8507 37.3345 33.7612 37.424 33.7612H37.6926C38.4089 33.5821 39.0356 33.403 39.6623 33.0448C39.8414 32.9552 39.9309 32.8657 40.11 32.7761C40.3786 32.5075 40.3786 32.3284 40.11 32.1493C39.9309 32.0597 39.8414 31.9701 39.6623 31.9701C39.2146 31.8806 38.6775 31.7015 38.1403 31.6119C37.8717 31.5224 37.6031 31.5224 37.3345 31.6119H37.1554Z" fill="#E30613"/>
<path d="M45.5714 20.7761C45.4819 20.6866 45.5714 20.5075 45.6609 20.4179C45.7505 20.3283 45.9295 20.4179 46.0191 20.5075C46.1086 20.597 46.1086 20.597 46.1981 20.6866C46.6458 20.9552 47.183 21.1343 47.6306 21.3134C47.8097 21.403 48.0783 21.403 48.2573 21.403H48.3469C48.5259 21.403 48.705 21.1343 48.705 20.9552C48.705 20.6866 48.6155 20.5075 48.6155 20.3284C48.4364 19.8806 48.1678 19.4328 47.9888 18.9851C47.8992 18.806 47.8097 18.7164 47.6306 18.6269C47.568 18.5642 47.5053 18.5015 47.5053 18.4388C47.5053 18.4119 47.5142 18.3851 47.5411 18.3582C47.5411 18.2686 47.6306 18.1791 47.8097 18.1791C47.8992 18.1791 47.9888 18.2686 47.9888 18.4478C47.9888 18.6269 48.0783 18.7164 48.1678 18.806C48.3469 18.9851 48.4364 19.0746 48.5259 19.2537C48.705 19.5224 48.7945 19.7015 48.9736 19.9701C49.1527 20.2388 49.3317 20.597 49.5108 20.8657C49.9585 21.5821 50.4061 21.5821 50.8538 20.8657C51.0328 20.597 51.1224 20.4179 51.3014 20.1492C51.391 20.0597 51.391 19.8806 51.3014 19.791C51.2746 19.7463 51.2656 19.6925 51.2656 19.6478C51.2656 19.5313 51.3462 19.4328 51.4805 19.4328C51.6595 19.3433 51.8386 19.3433 51.9281 19.5224C52.0177 19.7015 52.0177 19.8806 51.9281 19.9701C51.8386 20.0597 51.8386 20.2388 51.8386 20.3284C51.9281 20.6866 51.8386 21.0448 51.57 21.403C51.3014 21.7612 51.1224 22.2089 51.1224 22.7463V23.1045C51.1224 23.3731 51.0328 23.5522 50.8538 23.8209C50.7642 23.3731 50.7642 23.1045 50.6747 22.9254C50.5852 22.7463 50.4956 22.4776 50.227 22.4776C49.9584 22.4776 49.7794 22.5672 49.6898 22.8358C49.7794 22.6567 49.9584 22.5672 50.1375 22.5672C50.3166 22.5672 50.4061 22.7463 50.4061 22.9254C50.4061 23.0149 50.4956 23.1045 50.4956 23.194C50.5852 23.5522 50.6747 24 50.6747 24.2686C50.6747 24.7164 50.6747 25.0746 50.5852 25.4328C50.4956 26.0597 50.4061 26.6866 50.1375 27.2239C50.048 27.403 49.9585 27.5821 49.8689 27.6716C49.6003 28.0298 49.3317 28.0298 49.1527 27.5821C49.0631 27.403 49.0631 27.2239 48.9736 27.0448C48.8841 26.2388 48.8841 25.4328 49.0631 24.6269C49.1527 24.188 49.2332 23.8388 49.4123 23.4089C49.3586 23.5254 49.3049 23.6328 49.2422 23.7313C49.2422 23.8209 49.1527 23.9104 49.1527 24C48.3469 24 47.5411 23.8209 46.7353 23.6418C46.6458 23.7313 46.5562 23.7313 46.5562 23.8209C46.4667 23.9104 46.3772 23.9104 46.2877 23.8209C46.1981 23.7313 46.1981 23.6418 46.1981 23.5522C46.1981 23.4627 46.2877 23.3731 46.3772 23.3731H46.6458C47.0039 23.4627 47.4516 23.4627 47.7202 23.2836C47.7798 23.2836 47.8395 23.2537 47.8992 23.194C48.0783 23.0149 48.1678 22.7463 47.9888 22.5672C47.8992 22.3881 47.7202 22.1194 47.5411 21.9403C47.0934 21.5821 46.6458 21.2239 46.1981 20.8657C46.1086 20.7761 46.0191 20.7761 45.9295 20.8657C45.84 20.9552 45.6609 20.8657 45.5714 20.7761Z" fill="#E30613"/>
<path d="M50.4958 26.6866C51.5702 26.5075 52.6446 26.5075 53.6294 26.8657V27.0448C53.5399 27.4925 53.4503 27.9403 53.2713 28.3881C53.2116 28.5672 53.1221 28.6567 53.0027 28.6567C52.376 28.6567 51.6597 28.6567 51.033 28.4776C50.5853 28.3881 50.1377 28.2985 49.69 28.0299C50.1377 27.6717 50.4063 27.2239 50.4958 26.6866Z" fill="#E30613"/>
<path d="M52.6445 37.0746C51.6059 37.6478 50.5317 38.1313 49.4215 38.5254C49.4126 38.5164 49.4035 38.5164 49.3945 38.5254C49.2781 38.5433 49.1975 38.597 49.0632 38.597C48.5261 38.7761 47.9889 38.8657 47.4517 39.0448C47.3174 39.0806 47.2189 39.1254 47.1741 39.188C46.2072 39.4209 45.2223 39.5821 44.2285 39.6717C43.5122 39.7612 42.8855 39.7612 42.1693 39.9403C39.4833 40.3881 36.9764 41.4627 34.8277 43.1642C33.2161 44.4179 31.9627 46.0299 31.1569 48C30.2616 50.2388 29.993 52.6567 30.3511 55.0746C30.6107 56.7224 30.951 58.2806 31.6224 59.8388L31.6045 59.8209C31.4255 59.4627 31.2464 59.194 31.1569 58.8358C30.2616 56.9552 29.6348 54.9851 29.4558 52.9254C29.2767 51.1343 29.4558 49.3433 29.9034 47.6418C30.6197 45.3134 31.7836 43.2537 33.3952 41.5522C35.723 39.0448 38.588 37.0746 41.7216 35.8209C43.6018 35.0149 45.5715 34.3881 47.5411 33.6716C48.6155 33.3134 49.6899 32.8657 50.6748 32.3284C51.8387 31.7015 52.734 30.7164 53.1816 29.5522C53.3607 29.194 53.4502 28.8358 53.5398 28.4776C53.8979 27.0448 54.1665 25.612 54.256 24.1791C54.256 24 54.256 23.9105 54.077 23.7314C53.2712 22.5672 52.913 21.1343 53.1816 19.7911C53.2712 18.806 53.6293 17.9105 54.256 17.1045C54.3456 16.9254 54.5246 16.8358 54.6141 16.6567C54.7932 16.4776 54.8827 16.4776 55.1513 16.6567C55.3304 16.8358 55.4199 16.9254 55.599 17.1045C56.5838 18.3582 57.3001 19.7911 57.4791 21.403C57.6582 22.2985 57.4792 23.194 56.942 24C56.8524 24.1791 56.8524 24.3582 56.942 24.4478C57.4792 25.6119 57.8373 26.7761 57.9268 28.0299C58.1954 30.1791 57.6582 32.3284 56.3152 34.0299C55.3304 35.2836 54.077 36.3582 52.6445 37.0746Z" fill="#E30613"/>
<path d="M59.2699 40.0299C59.3594 40.1194 59.3594 40.209 59.2699 40.2985C59.1804 40.4776 59.0013 40.5672 58.9118 40.4776C58.8222 40.4776 58.8222 40.3881 58.7327 40.2985C58.6432 40.209 58.6432 40.209 58.5536 40.209C57.8374 40.0299 57.0316 39.9403 56.3154 39.9403C56.1363 39.9403 55.9572 40.0299 55.7782 40.0299H55.6886C55.42 40.1194 55.3305 40.3881 55.42 40.6567C55.5096 40.9254 55.6886 41.194 55.8677 41.4627C56.2258 41.9104 56.6735 42.3582 57.0316 42.806C57.1211 42.8955 57.2107 42.8955 57.2107 42.8955C57.3002 42.9851 57.3897 42.9851 57.3897 43.0746C57.3897 43.2537 57.3002 43.4328 57.1211 43.4328C56.9421 43.4328 56.763 43.3433 56.763 43.1642C56.763 43.0746 56.763 42.9851 56.6735 42.8955C56.1363 42.4478 55.5096 42.0896 54.8828 41.7313C54.6143 41.6418 54.3457 41.5522 54.1666 41.5522H54.0771C53.8085 41.5522 53.5399 41.7313 53.5399 42C53.4503 42.4478 53.5399 42.9851 53.8085 43.3433C53.898 43.4328 53.898 43.5224 53.898 43.6119C53.898 43.7015 53.898 43.8806 53.8085 43.9701C53.7189 44.0597 53.5399 44.0597 53.4503 43.9701C53.3608 43.8806 53.2713 43.791 53.3608 43.6119C53.3608 43.5224 53.4503 43.4328 53.5399 43.3433C52.9132 42.4478 52.376 41.4627 51.9283 40.3881L52.2864 40.2985C52.555 40.209 52.9132 40.1194 53.0922 39.9403C53.1638 39.9403 53.2356 39.8776 53.2625 39.806C53.3878 39.6985 53.4326 39.5552 53.361 39.403C53.2804 39.3224 53.2714 39.2418 53.2088 39.2328C53.1819 39.1881 53.137 39.1522 53.0922 39.1343C52.9132 39.0448 52.7341 38.8657 52.555 38.7761C52.376 38.6866 52.2864 38.6866 52.0178 38.597C52.1074 38.5075 52.1969 38.4179 52.2864 38.4179C52.555 38.2388 52.7341 38.1493 53.0027 38.0597C53.5399 37.8806 53.9875 37.5224 54.3457 37.0746C54.5247 36.806 54.8828 36.5373 55.1514 36.4478L55.6886 36.2687C55.8677 35.8209 55.9572 35.8209 56.3154 35.8209C56.4496 35.8836 56.5302 36 56.5302 36.1254C56.5302 36.1702 56.5213 36.2239 56.4944 36.2687C56.4049 36.5373 56.2258 36.6269 55.8677 36.5373C55.5096 36.806 55.241 37.1642 54.9724 37.5224C54.8828 37.7015 54.7933 37.8806 54.7038 37.9701C54.6143 38.2388 54.7038 38.5075 54.9724 38.597C55.1514 38.6866 55.241 38.7761 55.42 38.7761C55.7782 38.8657 56.2258 38.9552 56.5839 39.0448C57.3002 39.1343 58.0164 39.403 58.6432 39.7612L58.9118 39.8507C59.0013 39.8507 59.1804 39.8507 59.2699 40.0299Z" fill="#E30613"/>
<path d="M65 23.4627L64.9105 24C64.7314 24.0896 64.6419 24.1791 64.4628 24H64.2838C63.7466 24.1791 63.2094 24.3582 62.6722 24.6269C62.4931 24.7164 62.3141 24.806 62.135 24.9851C62.0455 25.0746 61.9559 25.1642 61.8664 25.2537C61.7769 25.5224 61.9559 25.7911 62.135 25.8806C62.4036 26.1493 62.7617 26.2388 63.1198 26.2388H63.2989C63.3884 26.3284 63.478 26.4179 63.478 26.5075C63.478 26.597 63.3884 26.6866 63.2989 26.7761C63.2094 26.7761 63.1198 26.7761 63.0303 26.6866C62.9408 26.597 62.9408 26.5075 62.8512 26.5075C61.8664 26.5075 60.8815 26.3284 59.8967 26.1493C59.9862 26.0597 60.0758 25.9702 60.0758 25.8806C60.1295 25.8 60.1563 25.7105 60.1563 25.6209C60.0758 25.8 59.9862 25.9702 59.8072 26.0597C59.3595 26.5075 58.8223 26.9552 58.2851 27.3134C58.1956 27.3134 58.1956 27.403 58.1061 27.403L57.8375 26.0597C58.1061 25.7015 58.6433 25.2537 59.1804 24.8955L58.8223 24.9851C58.8223 24.7164 58.9119 24.5373 58.9119 24.2687C59.0909 23.8209 59.0909 23.2836 58.9119 22.8358C58.8223 22.5672 58.8223 22.209 58.9119 21.9403C59.0014 21.8508 59.0014 21.6717 59.0909 21.4925V21.3134C59.0551 21.2418 59.0282 21.1612 59.0282 21.0985C59.0282 21 59.073 20.9194 59.1804 20.8657C59.27 20.7761 59.449 20.7761 59.6281 20.8657C59.6729 20.9105 59.6997 21 59.6997 21.0896C59.6997 21.1791 59.6729 21.2687 59.6281 21.3134C59.5386 21.403 59.5386 21.4925 59.5386 21.5821C59.6281 21.8508 59.7176 22.209 59.7176 22.4776C59.7176 22.6567 59.8072 22.7463 59.8967 22.8358C59.9504 23.006 60.1205 23.0687 60.2727 23.0687C60.3712 23.0687 60.4608 23.0508 60.5234 23.0149C60.7025 22.9254 60.8815 22.8358 61.0606 22.6567C61.4187 22.3881 61.6873 22.1194 61.9559 21.9403C62.3141 21.5821 62.6722 21.403 63.0303 21.1343C63.1198 21.1343 63.2094 21.0448 63.2094 20.9552C63.2094 20.8657 63.2989 20.7761 63.3884 20.7761C63.5675 20.7761 63.657 20.8657 63.657 20.9552C63.657 21.1343 63.5675 21.2239 63.478 21.2239C63.3884 21.2239 63.2989 21.2239 63.2094 21.3134C62.6722 21.7612 62.3141 22.209 61.9559 22.7463C61.8664 22.9254 61.7769 23.0149 61.7769 23.194C61.759 23.2299 61.75 23.2657 61.75 23.3015C61.75 23.4627 61.9022 23.6418 62.0455 23.6418C62.2245 23.7314 62.4036 23.7314 62.6722 23.7314C63.2094 23.7314 63.8361 23.6418 64.3733 23.5522C64.433 23.5522 64.4927 23.5224 64.5523 23.4627C64.5971 23.4179 64.6866 23.3911 64.7762 23.3911C64.8657 23.3911 64.9552 23.4179 65 23.4627Z" fill="#E30613"/>
<path d="M46.7357 30.5373L46.3776 30.806C45.6613 31.3433 45.0346 31.8806 44.4974 32.597C44.4079 32.6866 44.3183 32.7761 44.2288 32.7761C43.8707 32.8657 43.5126 32.8657 43.1544 32.7761C42.8679 32.7045 42.7511 32.5164 42.8586 32.3105C42.8675 32.2836 42.8854 32.2567 42.9033 32.2299C42.9213 32.203 42.9485 32.1761 42.9754 32.1493L43.154 31.9701C43.154 31.9701 43.2169 31.9075 43.2528 31.8806C43.3244 31.8179 43.405 31.7552 43.4945 31.6836C43.5303 31.6657 43.5663 31.6388 43.6021 31.6119C44.2288 31.1642 44.9451 30.8955 45.7508 30.7164C46.0194 30.7164 46.288 30.6269 46.7357 30.5373Z" fill="#E30613"/>
</svg>
