<svg width="70" height="64" viewBox="0 0 70 64" fill="none" xmlns="http://www.w3.org/2000/svg">
<path d="M0 2.19701C0 2.00597 0.0955224 1.91045 0.0955224 1.81493C0.191045 0.955224 0.764179 0.286567 1.62388 0.0955224C1.68756 0.0318408 1.75124 0 1.81493 0H14.1373V3.72537H5.44478C5.06269 3.72537 4.87164 4.01194 4.87164 4.39403V5.63582H11.5582C11.8448 5.63582 12.1313 5.63582 12.4179 5.73134C13.5642 5.82687 14.5194 6.68657 14.806 7.73731C14.806 7.92836 14.9015 8.02388 14.9015 8.21493C15.0925 9.17015 15.0925 10.1254 15.0925 11.0806C15.0925 11.7493 14.997 12.4179 14.7104 12.991C14.4239 13.9463 13.6597 14.6149 12.7045 14.9015C12.3224 14.997 12.0358 14.997 11.6537 14.997H2.10149C1.14627 14.997 0.286567 14.3284 0.0955224 13.3731C0.0955224 13.2776 0 13.1821 0 13.0866V2.19701ZM4.87164 8.9791V10.6985C4.87164 11.1761 5.06269 11.3672 5.5403 11.3672H8.88358C9.07463 11.3672 9.26567 11.3672 9.45672 11.2716C9.83881 11.2716 10.0299 10.9851 10.1254 10.603V9.83881C10.1254 9.45672 9.83881 9.17015 9.55224 9.07463C9.36119 8.9791 9.07463 8.9791 8.88358 8.9791H4.87164Z" fill="white"/>
<path d="M67.7254 0V12.3224C67.7254 12.7045 67.7253 13.1821 67.6298 13.5642C67.5343 14.2328 67.0567 14.7104 66.388 14.806C66.0059 14.9015 65.7194 14.9015 65.3373 14.9015H60.0836C59.797 14.9015 59.4149 14.9015 59.1283 14.806C57.791 14.7104 56.6448 13.8507 56.1671 12.5134C56.0716 12.3224 56.0716 12.1313 55.9761 11.9403C55.785 11.1761 55.6895 10.4119 55.6895 9.64776C55.594 8.59702 55.6895 7.64179 55.8806 6.59104C56.0716 5.44478 56.8358 4.39403 57.8865 3.91642C58.5552 3.8209 59.2239 3.62985 59.8925 3.62985H63.5224V0H67.7254ZM63.5224 6.49552H61.6119C61.0388 6.49552 60.5612 6.87761 60.2746 7.35522C60.0836 7.73731 59.988 8.1194 59.988 8.50149C59.8925 9.17015 59.988 9.74328 59.988 10.4119C59.988 10.603 60.0836 10.794 60.0836 10.8896C60.2746 11.4627 60.8477 11.9403 61.5164 11.9403H62.9492C63.3313 11.9403 63.5224 11.6537 63.5224 11.2716V6.87761C63.5224 6.78209 63.5224 6.68657 63.5224 6.49552Z" fill="white"/>
<path d="M0 17.0985H0.955224V27.7015C0.955224 27.8925 1.14627 28.0836 1.33731 28.0836H6.59104V19.8687H7.45075V28.0836H12.7045C12.8955 28.0836 13.0866 27.8925 13.0866 27.7015V19.8687H13.9463V27.9881C13.9463 28.4657 13.5642 28.7522 13.1821 28.8478H1.24179C1.05075 28.8478 0.859702 28.8478 0.764179 28.7522C0.38209 28.6567 0.0955224 28.3701 0 28.0836C0.0955224 27.9881 0 27.8925 0 27.7015V17.0985Z" fill="white"/>
<path d="M21.6834 29.0388H18.5312C17.5759 28.9433 16.8118 28.2746 16.6207 27.3194C16.5252 26.9373 16.5252 26.5552 16.5252 26.1731V18.9134C16.5252 18.8179 16.7162 18.7224 16.5252 18.6269C16.3341 18.5313 16.4297 18.3403 16.4297 18.1492V5.44476C16.4297 4.58506 17.0983 3.82088 17.958 3.72536C18.2446 3.72536 18.5312 3.62984 18.8177 3.62984H23.9759C24.358 3.62984 24.7401 3.62984 25.0267 3.72536C26.4595 3.91641 27.7013 4.87163 28.0834 6.30447C28.2744 6.78208 28.37 7.35521 28.37 7.83282C28.4655 8.69252 28.4655 9.64775 28.37 10.5075C28.2744 11.1761 28.1789 11.8448 27.9879 12.5134C27.6058 13.5642 26.7461 14.4239 25.5998 14.7104C24.9312 14.9015 24.358 14.9015 23.6894 14.9015H20.5371V18.5313H17.3849V26.2686C17.3849 26.5552 17.3849 26.8418 17.4804 27.0328C17.5759 27.5104 17.958 27.8925 18.4356 27.988C18.7222 28.0836 19.0088 28.0836 19.2953 28.0836H22.2565C22.5431 28.0836 22.7341 27.797 22.7341 27.606V20.0597H23.5938V31.4269C23.5938 31.9045 23.2118 32.2866 22.7341 32.3821H18.7222C17.958 32.3821 17.2894 32 16.9073 31.3313C16.6207 30.7582 16.4297 29.994 16.5252 29.3254H17.3849V29.7075C17.3849 29.994 17.4804 30.2806 17.4804 30.5672C17.5759 30.9492 17.8625 31.3313 18.3401 31.4269C18.5312 31.5224 18.7222 31.5224 18.9132 31.5224H22.0655C22.5431 31.5224 22.7341 31.4269 22.7341 30.7582V28.7522L21.6834 29.0388ZM22.7341 11.8448C23.4983 11.7492 24.0715 11.1761 24.167 10.4119C24.2625 9.64775 24.2625 8.78805 24.167 8.02387C24.0715 7.16417 23.4028 6.59103 22.5431 6.59103H21.0147C20.7282 6.59103 20.5371 6.8776 20.5371 7.16417V11.7492C21.3013 11.9403 21.97 11.9403 22.7341 11.8448Z" fill="white"/>
<path d="M30.2804 3.72536H37.349C37.7311 3.72536 38.2087 3.72536 38.5908 3.91641C39.7371 4.10745 40.6923 5.06267 40.9789 6.20894C41.1699 6.78208 41.1699 7.25969 41.1699 7.83282V13.3731C41.0744 14.1373 40.5013 14.806 39.7371 14.9015C39.4505 14.997 39.0684 14.997 38.7819 14.997H32.0953C31.8087 14.997 31.5222 14.997 31.2356 14.9015C30.4714 14.806 29.8028 14.3283 29.5162 13.6597C29.4207 13.3731 29.3252 13.1821 29.2296 12.8955C29.0386 12.0358 29.0386 11.0806 29.1341 10.2209C29.1341 9.93432 29.2296 9.55223 29.3252 9.26566C29.5162 8.597 30.0893 8.02387 30.758 7.92835C31.1401 7.83282 31.5222 7.83282 31.9043 7.83282H36.8714V7.7373C37.2535 7.06865 36.8714 6.59103 36.2983 6.49551C36.1072 6.49551 35.8207 6.39999 35.6296 6.39999H29.9938V3.62984L30.2804 3.72536ZM34.2923 10.5075C34.1013 10.5075 34.0058 10.5075 33.8147 10.603C33.5281 10.6985 33.3371 10.8895 33.4326 11.1761C33.4326 11.5582 33.5281 11.7492 33.8147 11.8448C33.9102 11.8448 34.1013 11.9403 34.1968 11.9403H36.6804C36.9669 11.9403 37.2535 11.6537 37.158 11.2716V10.5075H34.2923Z" fill="white"/>
<path d="M50.5313 14.9015V10.6985H46.806V14.997H42.6985C42.603 14.6149 42.603 3.91641 42.6985 3.72536C43.1761 3.62984 46.6149 3.62984 46.806 3.72536V7.64178H50.5313V3.62984H54.6388V14.9015C54.2567 14.997 50.7224 14.997 50.5313 14.9015Z" fill="white"/>
<path d="M31.5226 20.6328V28.6567H30.6629V20.6328H26.7465C26.5554 20.6328 26.3644 20.8239 26.3644 21.0149V28.6567H25.5047V20.6328C25.5047 20.2507 25.7912 19.9642 26.1733 19.9642H36.1077C36.4897 19.9642 36.7763 20.3463 36.7763 20.7284V28.8478H35.9166V21.1104C35.9166 20.9194 35.7256 20.7284 35.5345 20.7284H35.248L31.5226 20.6328Z" fill="white"/>
<path d="M39.5464 20.3463V27.4149C39.5464 27.8925 39.6419 27.988 40.1195 27.988H44.8956V19.9642H45.7553V28.0836H46.9016V28.8477H39.9285C39.7374 28.8477 39.6419 28.8477 39.4508 28.7522C39.0688 28.6567 38.7822 28.3701 38.7822 27.988V19.8686H39.6419L39.5464 20.3463Z" fill="white"/>
<path d="M46.4239 33.8149C46.3571 33.8818 46.2424 33.9487 46.1469 34.006C46.2233 33.9391 46.3093 33.8722 46.4048 33.7958C46.4048 33.7958 46.4112 33.8022 46.4239 33.8149Z" fill="#E30613"/>
<path d="M33.7481 63.8472C33.7481 63.8472 33.815 63.9427 33.815 64C33.7959 63.9522 33.7672 63.8949 33.7481 63.8472Z" fill="#E30613"/>
<path d="M52.6996 41.0937C51.9259 41.3803 51.1331 41.6095 50.3307 41.8006C50.3785 41.7337 50.4835 41.686 50.6268 41.6477C51.1999 41.4567 51.7731 41.3612 52.3462 41.1701C52.4895 41.1701 52.5755 41.1128 52.6996 41.0937Z" fill="#E30613"/>
<path d="M56.836 42.4119C56.9124 42.1922 56.8742 41.9821 56.7691 41.8484C56.836 41.8579 56.8455 41.9439 56.9315 42.0298C57.0079 42.1922 56.9602 42.3451 56.8264 42.4597C56.836 42.4501 56.836 42.431 56.836 42.4119Z" fill="#E30613"/>
<path d="M56.8264 42.4597C56.8264 42.4597 56.7691 42.4884 56.7404 42.5075C56.5494 42.603 56.3583 42.6985 56.0718 42.794C55.4031 42.9851 54.6389 43.0806 53.8747 42.9851C53.4927 42.9851 53.015 42.9851 52.5374 42.8896C51.9643 42.794 51.4867 42.6985 50.9136 42.5075C50.7225 42.4119 50.5315 42.3164 50.4359 42.2209C50.2545 42.0394 50.2256 41.9057 50.3307 41.8006C50.3785 41.7337 50.4835 41.686 50.6268 41.6477C51.1999 41.4567 51.7731 41.3612 52.3462 41.1701C52.4895 41.1701 52.5755 41.1128 52.6996 41.0937C52.7092 41.0842 52.7189 41.0842 52.7285 41.0937C52.7571 41.0746 52.7858 41.0746 52.824 41.0746C53.3971 41.0746 53.9703 41.0746 54.4479 41.1701C55.021 41.1701 55.5942 41.3612 56.1673 41.5522C56.3583 41.6478 56.5494 41.7433 56.7404 41.8388C56.7404 41.8388 56.7596 41.8388 56.7691 41.8484C56.836 41.8579 56.8455 41.9439 56.9315 42.0298C57.0079 42.1922 56.9602 42.3451 56.8264 42.4597Z" fill="#E30613"/>
<path d="M46.3282 36.8716C46.7103 36.0119 47.2834 35.1522 48.0476 34.4836C48.5252 33.9105 49.0983 33.4328 49.767 33.0508C50.0535 32.8597 50.3401 32.6687 50.7222 32.5731C51.1043 32.4776 51.2953 32.6687 51.2953 33.0508C51.2953 33.3373 51.1998 33.6239 51.1043 33.9105C50.8177 34.5791 50.4356 35.2478 49.958 35.7254C49.767 36.0119 49.4804 36.203 49.1938 36.203C49.0028 36.2985 48.8118 36.2985 48.7162 36.394L46.1371 37.2537C46.2327 37.0627 46.2327 36.9672 46.3282 36.8716Z" fill="#E30613"/>
<path d="M39.6416 33.7194C39.5461 33.7194 39.4506 33.6239 39.4506 33.6239C39.4506 33.5284 39.4506 33.4328 39.5461 33.4328C39.6416 33.3373 39.8326 33.3373 39.9282 33.3373C40.1192 33.4328 40.3103 33.4328 40.5013 33.4328H41.0744C41.6476 33.5284 42.2207 33.6239 42.7938 33.6239C43.1759 33.7194 43.6535 33.7194 44.0356 33.7194C44.6088 33.7194 44.7998 33.4328 44.7043 32.8597C44.6088 32.5731 44.5132 32.191 44.4177 31.9045C44.3222 31.9045 44.2267 31.9045 44.1312 31.809C44.0356 31.809 44.0356 31.7134 43.9401 31.6179C43.9401 31.4269 44.0356 31.3313 44.3222 31.2358C44.6088 31.1403 44.7998 31.3313 44.7998 31.5224V31.7134L44.9909 31.809C45.3729 32 45.6595 32.3821 45.755 32.8597C45.8506 33.1463 45.9461 33.3373 46.1371 33.5284C46.2231 33.6143 46.3189 33.7099 46.4048 33.7958C46.3093 33.8722 46.2233 33.9391 46.1469 34.006C46.1087 34.0346 46.0798 34.0728 46.0416 34.1015C45.9174 34.1588 45.8315 34.2639 45.7741 34.3785C45.755 34.4072 45.7359 34.4358 45.7264 34.4645C45.6977 34.5027 45.6786 34.5409 45.6595 34.5791C45.6595 34.6746 45.564 34.6746 45.564 34.7701C45.4685 35.0567 45.6595 35.2478 45.9461 35.3433C46.1371 35.4388 46.2327 35.4388 46.4237 35.4388H46.9013C46.9013 35.5343 46.8058 35.5343 46.7103 35.6298C45.6595 36.2985 44.5132 36.9672 43.367 37.5403C43.1759 37.6358 43.0804 37.8269 42.7938 37.8269C42.6983 37.8269 42.6028 37.7313 42.6028 37.6358C42.6028 37.5403 42.6028 37.4448 42.6983 37.3493C42.762 37.2856 42.8257 37.2537 42.8894 37.2537C43.2715 37.0627 43.558 36.7761 43.7491 36.4895C43.9401 36.203 43.8446 36.0119 43.4625 35.9164C43.2715 35.9164 43.1759 35.8209 42.9849 35.8209C42.2207 35.8209 41.4565 35.9164 40.6924 36.1075C40.5013 36.1075 40.2147 36.1075 40.1192 36.394C40.0715 36.4418 40.0046 36.4704 39.9282 36.4704C39.8518 36.4704 39.7849 36.4418 39.7371 36.394C39.6416 36.394 39.6416 36.2985 39.6416 36.203C39.6416 36.1075 39.8326 36.0119 39.9282 36.0119H40.2147C40.9789 35.8209 41.6476 35.6299 42.3162 35.2478C42.5073 35.1522 42.6028 35.0567 42.7938 34.9612C43.0804 34.6746 43.0804 34.4836 42.7938 34.2925C42.6028 34.197 42.5073 34.1015 42.3162 34.1015C41.8386 34.006 41.2655 33.8149 40.6924 33.7194C40.4058 33.6239 40.1192 33.6239 39.8327 33.7194H39.6416Z" fill="#E30613"/>
<path d="M48.6207 22.1612C48.5252 22.0657 48.6207 21.8746 48.7162 21.7791C48.8118 21.6836 49.0028 21.7791 49.0983 21.8746C49.1939 21.9701 49.1939 21.9701 49.2894 22.0657C49.767 22.3522 50.3401 22.5433 50.8177 22.7343C51.0088 22.8298 51.2953 22.8298 51.4864 22.8298H51.5819C51.773 22.8298 51.964 22.5433 51.964 22.3522C51.964 22.0657 51.8685 21.8746 51.8685 21.6836C51.6774 21.206 51.3909 20.7283 51.1998 20.2507C51.1043 20.0597 51.0088 19.9642 50.8177 19.8686C50.7509 19.8018 50.684 19.7349 50.684 19.668C50.684 19.6394 50.6936 19.6107 50.7222 19.5821C50.7222 19.4866 50.8177 19.391 51.0088 19.391C51.1043 19.391 51.1998 19.4866 51.1998 19.6776C51.1998 19.8686 51.2954 19.9642 51.3909 20.0597C51.5819 20.2507 51.6774 20.3463 51.773 20.5373C51.964 20.8239 52.0595 21.0149 52.2506 21.3015C52.4416 21.588 52.6327 21.9701 52.8237 22.2567C53.3013 23.0209 53.7789 23.0209 54.2565 22.2567C54.4476 21.9701 54.5431 21.7791 54.7342 21.4925C54.8297 21.397 54.8297 21.206 54.7342 21.1104C54.7055 21.0627 54.6959 21.0054 54.6959 20.9576C54.6959 20.8334 54.7819 20.7283 54.9252 20.7283C55.1162 20.6328 55.3073 20.6328 55.4028 20.8239C55.4983 21.0149 55.4983 21.206 55.4028 21.3015C55.3073 21.397 55.3073 21.588 55.3073 21.6836C55.4028 22.0657 55.3073 22.4478 55.0207 22.8298C54.7342 23.2119 54.5431 23.6895 54.5431 24.2627V24.6448C54.5431 24.9313 54.4476 25.1224 54.2565 25.4089C54.161 24.9313 54.161 24.6448 54.0655 24.4537C53.97 24.2627 53.8745 23.9761 53.5879 23.9761C53.3013 23.9761 53.1103 24.0716 53.0148 24.3582C53.1103 24.1672 53.3013 24.0716 53.4924 24.0716C53.6834 24.0716 53.7789 24.2627 53.7789 24.4537C53.7789 24.5492 53.8745 24.6448 53.8745 24.7403C53.97 25.1224 54.0655 25.6 54.0655 25.8866C54.0655 26.3642 54.0655 26.7463 53.97 27.1283C53.8745 27.797 53.7789 28.4657 53.4924 29.0388C53.3968 29.2298 53.3013 29.4209 53.2058 29.5164C52.9192 29.8985 52.6327 29.8985 52.4416 29.4209C52.3461 29.2298 52.3461 29.0388 52.2506 28.8477C52.1551 27.988 52.1551 27.1283 52.3461 26.2686C52.4416 25.8006 52.5276 25.428 52.7186 24.9695C52.6613 25.0937 52.604 25.2083 52.5371 25.3134C52.5371 25.4089 52.4416 25.5045 52.4416 25.6C51.5819 25.6 50.7222 25.4089 49.8625 25.2179C49.767 25.3134 49.6715 25.3134 49.6715 25.4089C49.5759 25.5045 49.4804 25.5045 49.3849 25.4089C49.2894 25.3134 49.2894 25.2179 49.2894 25.1224C49.2894 25.0269 49.3849 24.9313 49.4804 24.9313H49.767C50.1491 25.0269 50.6267 25.0269 50.9133 24.8358C50.9769 24.8358 51.0406 24.804 51.1043 24.7403C51.2953 24.5492 51.3909 24.2627 51.1998 24.0716C51.1043 23.8806 50.9133 23.594 50.7222 23.403C50.2446 23.0209 49.767 22.6388 49.2894 22.2567C49.1939 22.1612 49.0983 22.1612 49.0028 22.2567C48.9073 22.3522 48.7162 22.2567 48.6207 22.1612Z" fill="#E30613"/>
<path d="M53.8746 28.4657C55.0209 28.2746 56.1672 28.2746 57.2179 28.6567V28.8478C57.1224 29.3254 57.0269 29.803 56.8358 30.2806C56.7721 30.4717 56.6766 30.5672 56.5493 30.5672C55.8806 30.5672 55.1164 30.5672 54.4478 30.3761C53.9701 30.2806 53.4925 30.1851 53.0149 29.8985C53.4925 29.5164 53.7791 29.0388 53.8746 28.4657Z" fill="#E30613"/>
<path d="M56.1671 39.5463C55.059 40.1576 53.913 40.6734 52.7285 41.0937C52.7189 41.0842 52.7092 41.0842 52.6996 41.0937C52.5755 41.1128 52.4895 41.1701 52.3462 41.1701C51.7731 41.3612 51.1999 41.4567 50.6268 41.6477C50.4835 41.686 50.3785 41.7337 50.3307 41.8006C49.299 42.0489 48.2482 42.2209 47.188 42.3164C46.4238 42.4119 45.7551 42.4119 44.9909 42.603C42.1253 43.0806 39.4506 44.2269 37.1581 46.0418C35.4387 47.3791 34.1014 49.0985 33.2417 51.2C32.2865 53.5881 31.9999 56.1672 32.382 58.7463C32.659 60.5039 33.022 62.166 33.7384 63.8281L33.7193 63.809C33.5282 63.4269 33.3372 63.1403 33.2417 62.7582C32.2865 60.7523 31.6178 58.6508 31.4268 56.4537C31.2357 54.5433 31.4268 52.6328 31.9044 50.8179C32.6685 48.3343 33.9103 46.1373 35.6297 44.3224C38.1133 41.6478 41.17 39.5463 44.5133 38.209C46.5193 37.3493 48.6208 36.6806 50.7223 35.9164C51.8685 35.5343 53.0148 35.0567 54.0656 34.4836C55.3074 33.8149 56.2626 32.7642 56.7402 31.5224C56.9312 31.1403 57.0268 30.7582 57.1223 30.3761C57.5044 28.8478 57.7909 27.3194 57.8865 25.7911C57.8865 25.6 57.8865 25.5045 57.6954 25.3134C56.8357 24.0717 56.4536 22.5433 56.7402 21.1105C56.8357 20.0597 57.2178 19.1045 57.8865 18.2448C57.982 18.0537 58.173 17.9582 58.2685 17.7672C58.4596 17.5761 58.5551 17.5761 58.8417 17.7672C59.0327 17.9582 59.1282 18.0537 59.3193 18.2448C60.37 19.5821 61.1342 21.1105 61.3253 22.8299C61.5163 23.7851 61.3253 24.7403 60.7521 25.6C60.6566 25.7911 60.6566 25.9821 60.7521 26.0776C61.3253 27.3194 61.7073 28.5612 61.8029 29.8985C62.0894 32.1911 61.5163 34.4836 60.0835 36.2985C59.0327 37.6358 57.6954 38.7821 56.1671 39.5463Z" fill="#E30613"/>
<path d="M63.2358 42.6985C63.3313 42.794 63.3313 42.8896 63.2358 42.9851C63.1403 43.1761 62.9493 43.2716 62.8537 43.1761C62.7582 43.1761 62.7582 43.0806 62.6627 42.9851C62.5672 42.8896 62.5672 42.8896 62.4716 42.8896C61.7075 42.6985 60.8478 42.603 60.0836 42.603C59.8925 42.603 59.7015 42.6985 59.5104 42.6985H59.4149C59.1284 42.794 59.0328 43.0806 59.1284 43.3672C59.2239 43.6537 59.4149 43.9403 59.606 44.2269C59.9881 44.7045 60.4657 45.1821 60.8478 45.6597C60.9433 45.7552 61.0388 45.7552 61.0388 45.7552C61.1343 45.8507 61.2299 45.8507 61.2299 45.9463C61.2299 46.1373 61.1343 46.3284 60.9433 46.3284C60.7522 46.3284 60.5612 46.2328 60.5612 46.0418C60.5612 45.9463 60.5612 45.8507 60.4657 45.7552C59.8925 45.2776 59.2239 44.8955 58.5552 44.5134C58.2687 44.4179 57.9821 44.3224 57.791 44.3224H57.6955C57.409 44.3224 57.1224 44.5134 57.1224 44.8C57.0269 45.2776 57.1224 45.8507 57.409 46.2328C57.5045 46.3284 57.5045 46.4239 57.5045 46.5194C57.5045 46.6149 57.5045 46.806 57.409 46.9015C57.3134 46.997 57.1224 46.997 57.0269 46.9015C56.9313 46.806 56.8358 46.7104 56.9313 46.5194C56.9313 46.4239 57.0269 46.3284 57.1224 46.2328C56.4537 45.2776 55.8806 44.2269 55.403 43.0806L55.7851 42.9851C56.0716 42.8896 56.4537 42.794 56.6448 42.603C56.7212 42.603 56.7978 42.5361 56.8264 42.4597C56.9602 42.3451 57.0079 42.1922 56.9315 42.0298C56.8455 41.9439 56.836 41.8579 56.7691 41.8484C56.7405 41.8006 56.6925 41.7624 56.6448 41.7433C56.4537 41.6478 56.2627 41.4567 56.0716 41.3612C55.8806 41.2657 55.7851 41.2657 55.4985 41.1701C55.594 41.0746 55.6896 40.9791 55.7851 40.9791C56.0716 40.7881 56.2627 40.6925 56.5493 40.597C57.1224 40.406 57.6 40.0239 57.9821 39.5463C58.1731 39.2597 58.5552 38.9731 58.8418 38.8776L59.4149 38.6866C59.606 38.209 59.7015 38.209 60.0836 38.209C60.2269 38.2758 60.3128 38.4 60.3128 38.5337C60.3128 38.5815 60.3033 38.6388 60.2746 38.6866C60.1791 38.9731 59.9881 39.0687 59.606 38.9731C59.2239 39.2597 58.9373 39.6418 58.6507 40.0239C58.5552 40.2149 58.4597 40.406 58.3642 40.5015C58.2687 40.7881 58.3642 41.0746 58.6507 41.1701C58.8418 41.2657 58.9373 41.3612 59.1284 41.3612C59.5105 41.4567 59.9881 41.5522 60.3702 41.6478C61.1343 41.7433 61.8985 42.0299 62.5672 42.4119L62.8537 42.5075C62.9493 42.5075 63.1403 42.5075 63.2358 42.6985Z" fill="#E30613"/>
<path d="M69.3493 25.0269L69.2538 25.6C69.0628 25.6955 68.9673 25.7911 68.7762 25.6H68.5852C68.012 25.7911 67.4389 25.9821 66.8658 26.2687C66.6747 26.3642 66.4837 26.4597 66.2926 26.6508C66.1971 26.7463 66.1016 26.8418 66.0061 26.9373C65.9105 27.2239 66.1016 27.5105 66.2926 27.606C66.5792 27.8925 66.9613 27.9881 67.3434 27.9881H67.5344C67.6299 28.0836 67.7255 28.1791 67.7255 28.2746C67.7255 28.3702 67.6299 28.4657 67.5344 28.5612C67.4389 28.5612 67.3434 28.5612 67.2479 28.4657C67.1523 28.3702 67.1523 28.2746 67.0568 28.2746C66.0061 28.2746 64.9553 28.0836 63.9046 27.8925C64.0001 27.797 64.0956 27.7015 64.0956 27.606C64.1529 27.52 64.1816 27.4245 64.1816 27.329C64.0956 27.52 64.0001 27.7015 63.8091 27.797C63.3314 28.2746 62.7583 28.7522 62.1852 29.1343C62.0896 29.1343 62.0896 29.2299 61.9941 29.2299L61.7076 27.797C61.9941 27.4149 62.5673 26.9373 63.1404 26.5552L62.7583 26.6508C62.7583 26.3642 62.8538 26.1731 62.8538 25.8866C63.0449 25.409 63.0449 24.8358 62.8538 24.3582C62.7583 24.0717 62.7583 23.6896 62.8538 23.403C62.9494 23.3075 62.9494 23.1164 63.0449 22.9254V22.7343C63.0067 22.6579 62.978 22.572 62.978 22.5051C62.978 22.4 63.0258 22.314 63.1404 22.2567C63.2359 22.1612 63.427 22.1612 63.618 22.2567C63.6658 22.3045 63.6944 22.4 63.6944 22.4955C63.6944 22.5911 63.6658 22.6866 63.618 22.7343C63.5225 22.8299 63.5225 22.9254 63.5225 23.0209C63.618 23.3075 63.7135 23.6896 63.7135 23.9761C63.7135 24.1672 63.8091 24.2627 63.9046 24.3582C63.9619 24.5397 64.1434 24.6066 64.3058 24.6066C64.4108 24.6066 64.5064 24.5875 64.5732 24.5493C64.7643 24.4537 64.9553 24.3582 65.1464 24.1672C65.5285 23.8806 65.815 23.594 66.1016 23.403C66.4837 23.0209 66.8658 22.8299 67.2479 22.5433C67.3434 22.5433 67.4389 22.4478 67.4389 22.3522C67.4389 22.2567 67.5344 22.1612 67.63 22.1612C67.821 22.1612 67.9165 22.2567 67.9165 22.3522C67.9165 22.5433 67.821 22.6388 67.7255 22.6388C67.63 22.6388 67.5344 22.6388 67.4389 22.7343C66.8658 23.212 66.4837 23.6896 66.1016 24.2627C66.0061 24.4537 65.9105 24.5493 65.9105 24.7403C65.8914 24.7785 65.8819 24.8167 65.8819 24.8549C65.8819 25.0269 66.0443 25.2179 66.1971 25.2179C66.3882 25.3134 66.5792 25.3134 66.8658 25.3134C67.4389 25.3134 68.1076 25.2179 68.6807 25.1224C68.7444 25.1224 68.8081 25.0906 68.8717 25.0269C68.9195 24.9791 69.015 24.9505 69.1105 24.9505C69.2061 24.9505 69.3016 24.9791 69.3493 25.0269Z" fill="#E30613"/>
<path d="M49.8629 32.5731L49.4808 32.8597C48.7166 33.4328 48.048 34.006 47.4749 34.7702C47.3793 34.8657 47.2838 34.9612 47.1883 34.9612C46.8062 35.0567 46.4241 35.0567 46.042 34.9612C45.7364 34.8848 45.6118 34.6842 45.7264 34.4645C45.7359 34.4358 45.755 34.4072 45.7741 34.3785C45.7932 34.3498 45.8223 34.3212 45.851 34.2925L46.0416 34.1015C46.0416 34.1015 46.1087 34.0346 46.1469 34.006C46.2233 33.9391 46.3093 33.8722 46.4048 33.7958C46.443 33.7767 46.4814 33.7481 46.5196 33.7194C47.1883 33.2418 47.9525 32.9552 48.8122 32.7642C49.0987 32.7642 49.3853 32.6687 49.8629 32.5731Z" fill="#E30613"/>
</svg>
