<svg width="29" height="36" viewBox="0 0 29 36" fill="none" xmlns="http://www.w3.org/2000/svg">
<path d="M2.5 0.5V35.5H28.5V9.20703L19.793 0.5H2.5Z" stroke="white"/>
<path d="M20 1L20 10L29 10" stroke="white"/>
<rect width="23" height="10" transform="translate(0 21)" fill="#E30613"/>
<path d="M4.944 29H3.594V23.069H5.871C6.591 23.069 7.146 23.264 7.536 23.654C7.926 24.044 8.121 24.512 8.121 25.058C8.121 25.634 7.917 26.117 7.509 26.507C7.107 26.891 6.582 27.083 5.934 27.083H4.944V29ZM5.646 24.068H4.935V26.084H5.637C6.021 26.084 6.306 25.991 6.492 25.805C6.684 25.619 6.78 25.379 6.78 25.085C6.78 24.791 6.681 24.548 6.483 24.356C6.285 24.164 6.006 24.068 5.646 24.068ZM12.8536 26.012C12.8536 25.412 12.7066 24.944 12.4126 24.608C12.1186 24.266 11.6896 24.095 11.1256 24.095H10.2436V27.965H11.1796C11.6956 27.965 12.1036 27.797 12.4036 27.461C12.7036 27.119 12.8536 26.636 12.8536 26.012ZM11.2156 29H8.91159V23.06H11.0896C12.0676 23.06 12.8236 23.336 13.3576 23.888C13.8976 24.434 14.1676 25.142 14.1676 26.012C14.1676 26.87 13.9096 27.584 13.3936 28.154C12.8836 28.718 12.1576 29 11.2156 29ZM16.528 26.615V29H15.187V23.06H19.255V24.095H16.528V25.616H18.913V26.615H16.528Z" fill="white"/>
</svg>
