<svg width="64" height="64" viewBox="0 0 64 64" fill="none" xmlns="http://www.w3.org/2000/svg">
<path d="M12 0.5H52C58.3513 0.5 63.5 5.64873 63.5 12V52C63.5 58.3513 58.3513 63.5 52 63.5H12C5.64873 63.5 0.5 58.3513 0.5 52V12C0.5 5.64873 5.64873 0.5 12 0.5Z" fill="#F2F2F2"/>
<path d="M12 0.5H52C58.3513 0.5 63.5 5.64873 63.5 12V52C63.5 58.3513 58.3513 63.5 52 63.5H12C5.64873 63.5 0.5 58.3513 0.5 52V12C0.5 5.64873 5.64873 0.5 12 0.5Z" stroke="#F2F2F2"/>
<path d="M17 43.6667V52M23.0002 18.6667V52M29.0003 27V52M35.0005 12V52M41.0007 18.6667V52M47 35.3333V52" stroke="#E30613" stroke-width="2"/>
</svg>
