<svg width="180" height="28" viewBox="0 0 180 28" fill="none" xmlns="http://www.w3.org/2000/svg">
<path d="M180 26.5H0V27.5H180V26.5Z" fill="#00965E"/>
<path d="M180 0.5H163.73L163.24 2.5H179.5L180 0.5Z" fill="#00965E"/>
<path d="M179.25 3.5H162.99L162.49 5.5H178.75L179.25 3.5Z" fill="#00965E"/>
<path d="M178.5 6.5H162.24L161.74 8.5H178.01L178.5 6.5Z" fill="#00965E"/>
<path d="M177.76 9.5H161.49L160.99 11.5H177.26L177.76 9.5Z" fill="#00965E"/>
<path d="M177.01 12.5H160.74L160.24 14.5H176.51L177.01 12.5Z" fill="#00965E"/>
<path d="M176.26 15.5H159.99L159.5 17.5H175.76L176.26 15.5Z" fill="#00965E"/>
<path d="M175.51 18.5H159.25L158.75 20.5H175.01L175.51 18.5Z" fill="#00965E"/>
<path d="M174.76 21.5H158.5L158 23.5H174.27L174.76 21.5Z" fill="#00965E"/>
<path d="M147.5 7C149.43 7 151 5.43 151 3.5C151 1.57 149.43 0 147.5 0C145.57 0 144 1.57 144 3.5C144 5.43 145.57 7 147.5 7ZM147.5 0.73C149.03 0.73 150.27 1.97 150.27 3.5C150.27 5.03 149.03 6.27 147.5 6.27C145.97 6.27 144.73 5.03 144.73 3.5C144.73 1.97 145.97 0.73 147.5 0.73Z" fill="#1D1D1B"/>
<path d="M146.95 3.84016H147.33C147.77 3.84016 147.98 4.01016 148.05 4.37016C148.15 4.79016 148.22 5.09016 148.32 5.21016H149.16C149.1 5.08016 149.01 4.89016 148.91 4.37016C148.8 3.91016 148.63 3.63016 148.3 3.53016V3.49016C148.7 3.36016 149.02 3.09016 149.02 2.67016C149.02 2.33016 148.87 2.08016 148.66 1.93016C148.43 1.76016 148.13 1.66016 147.48 1.66016C146.91 1.66016 146.47 1.72016 146.15 1.76016V5.22016H146.95V3.84016ZM146.97 2.28016C147.06 2.26016 147.2 2.24016 147.41 2.24016C147.92 2.24016 148.15 2.45016 148.15 2.77016C148.15 3.13016 147.79 3.28016 147.35 3.28016H146.97V2.28016Z" fill="#1D1D1B"/>
<path d="M141.06 9.5H135.15C134.71 10.28 133.92 10.8 133 10.8H130V9.5H122V11.5H139.43C140.15 10.99 140.7 10.32 141.06 9.5Z" fill="#1D1D1B"/>
<path d="M139.82 14.5C139.23 13.49 138.63 12.87 138.18 12.5H121.99V14.5H139.82Z" fill="#1D1D1B"/>
<path d="M130 21.5H122V23.5H130V21.5Z" fill="#1D1D1B"/>
<path d="M130 6.5H122V8.5H130V6.5Z" fill="#1D1D1B"/>
<path d="M122 5.5H141.41C141.31 4.84 141.1 4.2 140.67 3.5H122.01V5.5H122Z" fill="#1D1D1B"/>
<path d="M133 0.5H122V2.5H139.85C138.56 1.35 136.08 0.5 133 0.5Z" fill="#1D1D1B"/>
<path d="M135.5 8.15C135.5 8.27 135.5 8.39 135.48 8.5H141.37C141.46 8.08 141.5 7.63 141.5 7.15C141.5 6.93 141.5 6.71 141.5 6.5H134.96C135.3 6.95 135.51 7.53 135.51 8.15H135.5Z" fill="#1D1D1B"/>
<path d="M134.84 20.5H142.23C142.05 19.88 141.83 19.2 141.59 18.5H133.94C134.27 19.19 134.57 19.87 134.84 20.5Z" fill="#1D1D1B"/>
<path d="M130 16C130 16 132.57 15.9 133.17 17C133.26 17.16 133.35 17.33 133.44 17.5H141.22C140.96 16.83 140.67 16.15 140.36 15.5H122.01V17.5H130.01V16H130Z" fill="#1D1D1B"/>
<path d="M130 18.5H122V20.5H130V18.5Z" fill="#1D1D1B"/>
<path d="M136 23.5H143C143 23.5 142.83 22.7 142.51 21.5H135.25C135.72 22.68 136 23.5 136 23.5Z" fill="#1D1D1B"/>
<path d="M109 6.5H102V8.5H109V6.5Z" fill="#1D1D1B"/>
<path d="M119 0.5H102V2.5H119V0.5Z" fill="#1D1D1B"/>
<path d="M109 15.5H102V17.5H109V15.5Z" fill="#1D1D1B"/>
<path d="M117 9.5H102V11.5H117V9.5Z" fill="#1D1D1B"/>
<path d="M117 12.5H102V14.5H117V12.5Z" fill="#1D1D1B"/>
<path d="M119 18.5H102V20.5H119V18.5Z" fill="#1D1D1B"/>
<path d="M119 3.5H102V5.5H119V3.5Z" fill="#1D1D1B"/>
<path d="M119 21.5H102V23.5H119V21.5Z" fill="#1D1D1B"/>
<path d="M90.48 9.5H78V11.5H91.7L90.48 9.5Z" fill="#1D1D1B"/>
<path d="M86.83 3.5H78V5.5H88.04L86.83 3.5Z" fill="#1D1D1B"/>
<path d="M84.5 12.5H78V14.5H84.59L84.5 12.5Z" fill="#1D1D1B"/>
<path d="M88.65 6.5H78V8.5H89.87L88.65 6.5Z" fill="#1D1D1B"/>
<path d="M99 18.5H88.96L90.17 20.5H99V18.5Z" fill="#1D1D1B"/>
<path d="M84.64 15.5H78V17.5H84.73L84.64 15.5Z" fill="#1D1D1B"/>
<path d="M84.77 18.5H78V20.5H84.86L84.77 18.5Z" fill="#1D1D1B"/>
<path d="M85 0.5H78V2.5H86.22L85 0.5Z" fill="#1D1D1B"/>
<path d="M99 12.5H85.3L86.52 14.5H99V12.5Z" fill="#1D1D1B"/>
<path d="M99 15.5H87.13L88.35 17.5H99V15.5Z" fill="#1D1D1B"/>
<path d="M84.91 21.5H78V23.5H85L84.91 21.5Z" fill="#1D1D1B"/>
<path d="M99 23.5V21.5H90.78L92 23.5H99Z" fill="#1D1D1B"/>
<path d="M99 9.5H92.41L92.5 11.5H99V9.5Z" fill="#1D1D1B"/>
<path d="M99 3.5H92.14L92.23 5.5H99V3.5Z" fill="#1D1D1B"/>
<path d="M99 2.5V0.5H92L92.09 2.5H99Z" fill="#1D1D1B"/>
<path d="M99 6.5H92.27L92.36 8.5H99V6.5Z" fill="#1D1D1B"/>
<path d="M49 0.5H36L35.52 2.5H49.48L49 0.5Z" fill="#1D1D1B"/>
<path d="M40.41 12.5H33.13L32.65 14.5H39.94L40.41 12.5Z" fill="#1D1D1B"/>
<path d="M42.4001 4H42.6L42.9501 5.5H50.2001L49.7201 3.5H35.28L34.8 5.5H42.05L42.4001 4Z" fill="#1D1D1B"/>
<path d="M41.11 9.5H33.85L33.37 11.5H40.64L41.11 9.5Z" fill="#1D1D1B"/>
<path d="M41.81 6.5H34.57L34.09 8.5H41.34L41.81 6.5Z" fill="#1D1D1B"/>
<path d="M45.06 14.5H52.35L51.87 12.5H44.59L45.06 14.5Z" fill="#1D1D1B"/>
<path d="M31.22 20.5H53.78L53.3 18.5H31.7L31.22 20.5Z" fill="#1D1D1B"/>
<path d="M39.2301 17.5L39.7001 15.5H32.4101L31.9301 17.5H39.2301Z" fill="#1D1D1B"/>
<path d="M45.7701 17.5H53.07L52.59 15.5H45.3L45.7701 17.5Z" fill="#1D1D1B"/>
<path d="M43.6599 8.5H50.9099L50.4299 6.5H43.1899L43.6599 8.5Z" fill="#1D1D1B"/>
<path d="M44.36 11.5H51.63L51.15 9.5H43.89L44.36 11.5Z" fill="#1D1D1B"/>
<path d="M30.5 23.5H54.5L54.02 21.5H30.98L30.5 23.5Z" fill="#1D1D1B"/>
<path d="M15.87 12.5H2.87L3.35 14.5H15.35L15.87 12.5Z" fill="#1D1D1B"/>
<path d="M14.3 18.5H4.30005L4.78005 20.5H13.78L14.3 18.5Z" fill="#1D1D1B"/>
<path d="M26.5 23.5L26.98 21.5H18.48L19 23.5H26.5Z" fill="#1D1D1B"/>
<path d="M31.28 3.5H23.98L23.63 5.5H30.8L31.28 3.5Z" fill="#1D1D1B"/>
<path d="M27.7 18.5H17.7L18.2199 20.5H27.2199L27.7 18.5Z" fill="#1D1D1B"/>
<path d="M30.57 6.5H23.46L23.11 8.5H30.09L30.57 6.5Z" fill="#1D1D1B"/>
<path d="M28.41 15.5H16.91L17.43 17.5H27.93L28.41 15.5Z" fill="#1D1D1B"/>
<path d="M29.85 9.5H22.93L22.59 11.5H29.37L29.85 9.5Z" fill="#1D1D1B"/>
<path d="M29.13 12.5H16.13L16.65 14.5H28.65L29.13 12.5Z" fill="#1D1D1B"/>
<path d="M15.09 15.5H3.58997L4.06997 17.5H14.57L15.09 15.5Z" fill="#1D1D1B"/>
<path d="M1.19997 5.5H8.36997L8.01997 3.5H0.719971L1.19997 5.5Z" fill="#1D1D1B"/>
<path d="M7.85 2.5L7.5 0.5H0L0.48 2.5H7.85Z" fill="#1D1D1B"/>
<path d="M20.93 6.5H11.07L10.59 8.5H21.41L20.93 6.5Z" fill="#1D1D1B"/>
<path d="M21.65 9.5H10.35L9.87 11.5H22.13L21.65 9.5Z" fill="#1D1D1B"/>
<path d="M32 0.5H24.5L24.15 2.5H31.52L32 0.5Z" fill="#1D1D1B"/>
<path d="M20.22 3.5H11.78L11.3 5.5H20.7L20.22 3.5Z" fill="#1D1D1B"/>
<path d="M5.50002 23.5H13L13.52 21.5H5.02002L5.50002 23.5Z" fill="#1D1D1B"/>
<path d="M19.5 0.5H12.5L12.02 2.5H19.98L19.5 0.5Z" fill="#1D1D1B"/>
<path d="M2.63002 11.5H9.41002L9.07002 9.5H2.15002L2.63002 11.5Z" fill="#1D1D1B"/>
<path d="M1.91005 8.5H8.89005L8.54005 6.5H1.43005L1.91005 8.5Z" fill="#1D1D1B"/>
<path d="M64.84 17.5C64.51 17.26 64.22 16.97 64 16.6C63.76 16.2 63.58 15.84 63.44 15.5H55.48C55.65 16.19 55.88 16.86 56.16 17.5H64.85H64.84Z" fill="#1D1D1B"/>
<path d="M55.02 12.5C55.06 13.17 55.13 13.84 55.25 14.5H63.13C63 13.87 62.99 13.24 62.98 12.5H55.02Z" fill="#1D1D1B"/>
<path d="M75 18.5H56.65C57.03 19.18 57.48 19.82 58 20.4C58.03 20.43 58.06 20.47 58.09 20.5H74.99V18.5H75Z" fill="#1D1D1B"/>
<path d="M75 22.5V21.5H59.17C61.53 23.38 64.59 23.82 68.27 23.82C70.7 23.82 72.98 23.35 75 22.5Z" fill="#1D1D1B"/>
<path d="M75 12.5H68.5V14.5H75V12.5Z" fill="#1D1D1B"/>
<path d="M75 15.5H68.5V17.5H75V15.5Z" fill="#1D1D1B"/>
<path d="M64.28 7.7C64.68 7.18 65.14 6.79 65.65 6.5H56.03C55.76 7.13 55.54 7.8 55.37 8.5H63.75C63.9 8.24 64.07 7.97 64.28 7.7Z" fill="#1D1D1B"/>
<path d="M74 6.5H71.1C71.36 6.61 71.66 6.73 71.91 6.87C72.73 7.32 73.43 7.87 74 8.5V6.5Z" fill="#1D1D1B"/>
<path d="M74 1C72.23 0.38 70.31 0.01 68.32 0C64.8 0 62.28 0.0999999 59.09 2.5H74V1Z" fill="#1D1D1B"/>
<path d="M63.31 9.5H55.17C55.06 10.15 55 10.82 54.99 11.5H62.99C63.02 10.79 63.09 10.14 63.3 9.5H63.31Z" fill="#1D1D1B"/>
<path d="M74 3.5H57.94C57.41 4.06 56.93 4.74 56.52 5.5H74V3.5Z" fill="#1D1D1B"/>
</svg>
